<svg xmlns="http://www.w3.org/2000/svg" viewBox="0 0 201 63">
  <path fill-rule="evenodd" clip-rule="evenodd" fill="#A8551B" d="M58.476,49.438c0.099,6.287-4.549,11.931-10.903,13.019
      c-3.521,0.603-6.784-0.145-9.885-1.794c-3.024-1.608-5.516-3.882-7.826-6.369c-0.279-0.301-0.425-0.285-0.689,0
      c-2.094,2.258-4.35,4.327-7.011,5.915c-2.113,1.262-4.372,2.152-6.827,2.382c-4.397,0.412-8.199-0.921-11.264-4.15
      c-1.968-2.073-3.096-4.569-3.464-7.396c-0.352-2.695,0.19-5.264,1.292-7.712c1.629-3.62,3.261-7.241,4.982-10.817
      c2.794-5.808,5.634-11.594,8.509-17.361c1.538-3.085,3.14-6.142,4.808-9.159c1.281-2.317,3.154-4.043,5.674-4.999
      c4.069-1.544,8.758-0.317,11.577,3.021c1.281,1.517,2.177,3.267,3.066,5.019c2.509,4.94,5.064,9.858,7.476,14.847
      c3.093,6.398,6.071,12.852,9.081,19.29c0.745,1.596,1.215,3.281,1.397,5.037C58.512,48.615,58.476,49.028,58.476,49.438z
       M4.386,49.427c0.04,0.463,0.056,0.93,0.123,1.389c0.75,5.138,5.574,8.749,11.015,7.839c1.871-0.312,3.562-1.071,5.148-2.085
      c2.211-1.412,4.089-3.206,5.86-5.121c0.447-0.483,0.443-0.477,0.032-0.997c-2.52-3.183-4.771-6.531-6.256-10.337
      c-1.027-2.633-1.619-5.341-1.216-8.191c0.399-2.83,1.72-5.128,4.048-6.792c2.292-1.637,4.872-2.229,7.668-1.922
      c2.26,0.248,4.271,1.083,5.948,2.617c2.854,2.61,3.645,5.938,3.195,9.647c-0.288,2.38-1.104,4.604-2.148,6.749
      c-1.475,3.028-3.376,5.78-5.476,8.402c-0.169,0.212-0.254,0.365-0.029,0.608c1.818,1.969,3.729,3.829,5.994,5.293
      c1.865,1.205,3.867,2.073,6.101,2.236c2.651,0.194,5.062-0.508,7.053-2.309c2.527-2.286,3.568-5.146,3.062-8.543
      c-0.189-1.271-0.631-2.463-1.174-3.612c-3.463-7.333-6.912-14.673-10.431-21.98c-1.767-3.666-3.655-7.273-5.516-10.893
      c-0.839-1.632-1.617-3.302-2.776-4.75c-2.194-2.741-6.092-3.269-8.926-1.201c-1.187,0.866-1.979,2.051-2.646,3.322
      c-1.529,2.916-3.066,5.828-4.533,8.775c-2.532,5.086-5.046,10.181-7.504,15.303c-1.859,3.872-3.633,7.785-5.417,11.692
      C4.884,46.103,4.356,47.696,4.386,49.427z M29.519,47.934c0.114-0.143,0.175-0.219,0.235-0.296
      c1.588-2.047,3.062-4.173,4.241-6.484c1.296-2.537,2.323-5.153,2.165-8.085c-0.083-1.535-0.564-2.917-1.652-4.022
      c-1.754-1.782-3.918-2.316-6.334-1.91c-2.941,0.495-5.233,2.709-5.331,6.229c-0.054,1.913,0.434,3.721,1.133,5.475
      c1.14,2.857,2.785,5.425,4.608,7.885C28.868,47.106,29.167,47.479,29.519,47.934z"/>
    <path fill-rule="evenodd" clip-rule="evenodd" fill="#A8551B" d="M182.319,44.888c0,0.306,0.004,0.611-0.001,0.917
      c-0.007,0.56-0.274,0.855-0.818,0.858c-1.556,0.009-3.111-0.002-4.667,0.009c-0.304,0.002-0.387-0.12-0.384-0.405
      c0.011-1.202,0.005-2.403,0.005-3.605c0-10.04-0.001-20.08,0-30.119c0-0.606,0-0.606,0.596-0.606c1.584,0,3.168,0.013,4.751-0.009
      c0.407-0.006,0.529,0.111,0.527,0.523c-0.014,4.03-0.008,8.06-0.008,12.09c0,0.175,0,0.35,0,0.649
      c0.202-0.158,0.303-0.223,0.388-0.303c1.531-1.448,3.372-2.126,5.456-2.174c3.447-0.078,6.451,1.031,8.888,3.49
      c1.978,1.997,3.061,4.441,3.357,7.236c0.3,2.815-0.12,5.5-1.561,7.964c-1.937,3.309-4.836,5.211-8.625,5.775
      c-1.677,0.249-3.318,0.165-4.914-0.436c-0.964-0.362-1.821-0.899-2.558-1.624c-0.098-0.096-0.199-0.186-0.3-0.277
      C182.408,44.856,182.364,44.872,182.319,44.888z M182.32,34.959c0,1.018,0.08,2.044-0.023,3.051
      c-0.105,1.045,0.342,1.723,1.112,2.292c0.08,0.059,0.156,0.122,0.235,0.181c1.666,1.23,3.539,1.475,5.518,1.11
      c1.637-0.302,3.038-1.044,4.081-2.377c0.769-0.982,1.184-2.104,1.314-3.343c0.212-1.993-0.159-3.831-1.485-5.389
      c-1.174-1.38-2.723-2.041-4.501-2.264c-2.366-0.297-4.338,0.449-5.949,2.173c-0.172,0.184-0.283,0.495-0.289,0.75
      C182.305,32.415,182.32,33.687,182.32,34.959z"/>
    <path fill-rule="evenodd" clip-rule="evenodd" fill="#A8551B" d="M131.138,44.824c0,0.341,0.003,0.617,0,0.893
      c-0.007,0.646-0.29,0.946-0.92,0.948c-1.485,0.006-2.971-0.01-4.456,0.011c-0.398,0.006-0.498-0.126-0.497-0.511
      c0.012-4.639,0.007-9.278,0.007-13.918c0-6.577,0-13.154,0-19.731c0-0.58,0.001-0.58,0.58-0.58c1.599,0,3.196,0.012,4.795-0.009
      c0.398-0.005,0.501,0.121,0.5,0.508c-0.014,4.045-0.009,8.091-0.009,12.136c0,0.164,0,0.328,0,0.593
      c0.172-0.129,0.262-0.185,0.336-0.255c1.539-1.463,3.393-2.146,5.492-2.196c3.302-0.079,6.199,0.956,8.614,3.227
      c1.942,1.826,3.076,4.103,3.525,6.711c0.472,2.742,0.196,5.419-1.034,7.933c-1.85,3.779-4.898,5.966-9.062,6.595
      c-2.158,0.325-4.23,0.103-6.129-1.042C132.295,45.782,131.779,45.312,131.138,44.824z M131.138,34.958
      c0,1.075,0.077,2.157-0.023,3.223c-0.087,0.923,0.323,1.501,0.965,2.02c0.144,0.115,0.288,0.229,0.437,0.337
      c1.599,1.159,3.4,1.41,5.289,1.084c2.267-0.391,4.026-1.539,5.001-3.689c0.552-1.219,0.707-2.509,0.555-3.847
      c-0.17-1.495-0.695-2.814-1.763-3.896c-1.173-1.188-2.617-1.777-4.256-1.974c-2.364-0.284-4.341,0.457-5.94,2.204
      c-0.152,0.167-0.247,0.448-0.252,0.678C131.126,32.383,131.138,33.671,131.138,34.958z"/>
    <path fill-rule="evenodd" clip-rule="evenodd" fill="#A8551B" d="M89.286,25.062c0-0.288-0.005-0.576,0.001-0.865
      c0.011-0.59,0.307-0.891,0.885-0.892c1.513-0.003,3.026,0.01,4.539-0.008c0.368-0.004,0.446,0.134,0.446,0.471
      c-0.007,7.48-0.008,14.96,0.001,22.44c0,0.346-0.098,0.471-0.455,0.467c-1.499-0.017-2.997-0.004-4.496-0.01
      c-0.638-0.002-0.914-0.293-0.921-0.942c-0.003-0.275-0.001-0.55-0.001-0.916c-0.169,0.112-0.256,0.151-0.318,0.214
      c-1.408,1.393-3.111,2.117-5.077,2.237c-3.677,0.227-6.838-0.942-9.419-3.577c-1.688-1.724-2.704-3.816-3.126-6.187
      c-0.558-3.136-0.18-6.146,1.432-8.923c1.856-3.198,4.657-5.086,8.305-5.7c1.958-0.33,3.897-0.281,5.716,0.602
      c0.727,0.353,1.365,0.887,2.04,1.344c0.121,0.082,0.224,0.19,0.335,0.285C89.21,25.089,89.248,25.076,89.286,25.062z
       M89.286,34.982c0-1.103-0.061-2.209,0.02-3.306c0.061-0.839-0.263-1.406-0.887-1.876c-0.056-0.042-0.108-0.09-0.164-0.134
      c-1.645-1.304-3.509-1.764-5.566-1.41c-1.836,0.316-3.41,1.112-4.495,2.679c-1.034,1.493-1.339,3.164-1.128,4.957
      c0.237,2.016,1.148,3.612,2.859,4.717c1.35,0.872,2.853,1.174,4.444,1.118c1.851-0.065,3.388-0.797,4.602-2.182
      c0.183-0.209,0.294-0.55,0.301-0.833C89.304,37.471,89.285,36.226,89.286,34.982z"/>
    <path fill-rule="evenodd" clip-rule="evenodd" fill="#A8551B" d="M157.51,25.1c0.088-0.064,0.185-0.12,0.264-0.194
      c1.356-1.254,2.968-1.927,4.793-2.124c2.355-0.253,4.587,0.101,6.642,1.332c2.211,1.325,3.54,3.243,3.861,5.816
      c0.096,0.768,0.169,1.544,0.172,2.316c0.016,4.61,0.008,9.221,0.008,13.83c0,0.589-0.001,0.59-0.575,0.591
      c-1.556,0-3.111,0-4.667,0c-0.634,0-0.634-0.001-0.634-0.614c0-4.455,0.011-8.909-0.014-13.363
      c-0.003-0.654-0.117-1.323-0.281-1.959c-0.395-1.531-1.439-2.383-2.979-2.642c-2.261-0.38-4.211,0.257-5.884,1.81
      c-0.314,0.292-0.435,0.61-0.433,1.042c0.013,5.048,0.009,10.096,0.008,15.145c0,0.581,0,0.582-0.58,0.582
      c-1.611,0-3.224-0.008-4.836,0.006c-0.341,0.003-0.47-0.093-0.47-0.454c0.009-7.494,0.008-14.989,0.001-22.483
      c-0.001-0.332,0.104-0.442,0.438-0.438c1.386,0.015,2.771,0.004,4.157,0.007c0.602,0.001,0.865,0.273,0.875,0.888
      c0.004,0.29,0.001,0.581,0.001,0.871C157.422,25.076,157.466,25.088,157.51,25.1z"/>
    <path fill-rule="evenodd" clip-rule="evenodd" fill="#A8551B" d="M114.649,25.103c0.213-0.195,0.416-0.404,0.642-0.584
      c1.825-1.459,3.891-2.062,6.216-1.741c1.146,0.158,1.147,0.154,1.147,1.321c0,1.202,0,2.404,0,3.605
      c0,0.65,0.001,0.642-0.649,0.508c-1.92-0.395-3.787-0.291-5.565,0.611c-0.188,0.095-0.369,0.207-0.551,0.317
      c-0.933,0.567-1.434,1.251-1.409,2.489c0.093,4.792,0.038,9.586,0.037,14.38c0,0.658,0,0.658-0.678,0.658
      c-1.569,0-3.139-0.013-4.708,0.008c-0.4,0.006-0.497-0.13-0.497-0.512c0.01-7.452,0.01-14.903,0-22.355
      c0-0.377,0.085-0.521,0.493-0.514c1.484,0.023,2.969,0.008,4.453,0.01c0.687,0.001,0.932,0.252,0.937,0.955
      c0.002,0.271,0,0.542,0,0.812C114.561,25.082,114.604,25.093,114.649,25.103z"/>
    <path fill-rule="evenodd" clip-rule="evenodd" fill="#A8551B" d="M98.964,34.984c0-3.718,0.006-7.437-0.008-11.154
      c-0.001-0.395,0.09-0.542,0.515-0.536c1.625,0.024,3.251,0.019,4.877,0.003c0.359-0.004,0.491,0.083,0.491,0.47
      c-0.011,7.479-0.011,14.957-0.001,22.436c0.001,0.384-0.131,0.477-0.491,0.473c-1.625-0.016-3.251-0.021-4.877,0.002
      c-0.426,0.007-0.515-0.146-0.513-0.539C98.97,42.42,98.965,38.702,98.964,34.984z"/>
    <path fill-rule="evenodd" clip-rule="evenodd" fill="#A8551B" d="M101.908,19.922c-2.193-0.003-3.993-1.804-3.955-4.017
      c0.036-2.131,1.632-3.955,3.992-3.943c2.451,0.014,3.967,1.918,3.98,4.002C105.94,18.16,104.131,19.925,101.908,19.922z"/>
</svg>