<svg xmlns="http://www.w3.org/2000/svg" viewBox="0 0 250 25">
    <path fill-rule="evenodd" clip-rule="evenodd" fill="#A7572C" d="M173.384,18.85c0.465-0.129,0.871-0.241,1.297-0.359
        c0-4.615,0-9.199,0-13.787c-0.178-0.022-0.282-0.041-0.389-0.046c-1.09-0.055-1.14-0.121-0.896-1.244
        c0.131-0.019,0.273-0.057,0.416-0.057c1.498-0.005,2.997,0.012,4.495-0.014c0.54-0.01,0.76,0.304,0.931,0.717
        c0.072,0.176,0.115,0.364,0.176,0.545c0.541,1.606,1.071,3.216,1.628,4.817c0.522,1.505,1.078,3,1.612,4.501
        c0.173,0.486,0.325,0.981,0.486,1.472c0.053-0.008,0.105-0.016,0.156-0.023c0.155-0.435,0.313-0.869,0.463-1.307
        c0.477-1.394,0.939-2.792,1.431-4.18c0.361-1.025,0.774-2.033,1.14-3.057c0.314-0.883,0.604-1.775,0.885-2.669
        c0.212-0.676,0.335-0.786,1.036-0.79c1.391-0.007,2.783-0.016,4.174-0.014c0.542,0,0.796,0.206,0.799,0.607
        c0.004,0.43-0.284,0.678-0.806,0.694c-0.755,0.023-0.798,0.064-0.797,0.807c0.001,4.131,0.004,8.263,0.008,12.395
        c0.001,0.808,0.01,0.812,0.818,0.873c0.602,0.045,0.752,0.175,0.74,0.637c-0.012,0.478-0.234,0.664-0.816,0.651
        c-1.238-0.027-2.477-0.075-3.715-0.093c-0.379-0.005-0.762,0.051-1.141,0.095c-0.572,0.067-0.969-0.271-0.862-0.799
        c0.034-0.174,0.217-0.339,0.367-0.464c0.086-0.07,0.248-0.042,0.372-0.074c0.843-0.227,0.824-0.228,0.821-1.122
        c-0.012-3.359-0.009-6.721-0.016-10.082c0-0.225-0.028-0.45-0.055-0.837c-0.193,0.231-0.317,0.32-0.356,0.438
        c-0.506,1.514-0.986,3.037-1.499,4.549c-0.487,1.437-1.005,2.86-1.507,4.29c-0.416,1.184-0.845,2.362-1.236,3.554
        c-0.14,0.427-0.343,0.637-0.818,0.618c-1.719-0.068-1.388,0.312-1.979-1.472c-0.535-1.617-1.163-3.204-1.727-4.812
        c-0.387-1.11-0.717-2.237-1.104-3.346c-0.335-0.964-0.72-1.911-1.067-2.87c-0.102-0.275-0.154-0.569-0.228-0.854
        c-0.054-0.008-0.107-0.015-0.161-0.022c-0.048,0.217-0.138,0.433-0.14,0.65c-0.008,0.834,0.02,1.669,0.021,2.504
        c0.003,2.546-0.001,5.095-0.002,7.642c0,0.129-0.004,0.258,0.005,0.386c0.05,0.743,0.08,0.785,0.825,0.828
        c0.369,0.021,0.679,0.066,0.738,0.523c0.065,0.518-0.129,0.722-0.661,0.707c-1.027-0.027-2.054-0.032-3.08-0.053
        C173.217,19.883,173.169,19.813,173.384,18.85z"/>
      <path fill-rule="evenodd" clip-rule="evenodd" fill="#A7572C" d="M29.348,4.958c0,4.623,0,9.235,0,13.885
        c0.227,0.018,0.413,0.039,0.6,0.044c0.933,0.025,1.013,0.125,0.83,1.136c-2.112,0-4.236,0-6.412,0
        c0.071-0.393-0.271-0.851,0.216-1.055c0.335-0.14,0.75-0.088,1.19-0.127c0.026-0.257,0.071-0.505,0.072-0.754
        c0.007-1.777,0.005-3.553,0.007-5.331c0-0.354,0.027-0.692-0.503-0.688c-1.969,0.016-3.938,0.01-5.907,0.016
        c-0.062,0-0.124,0.026-0.258,0.056c0,2.215,0,4.442,0,6.708c0.265,0.018,0.495,0.038,0.725,0.046
        c0.676,0.023,0.688,0.032,0.678,0.691c-0.002,0.124-0.025,0.249-0.046,0.443c-0.388,0.019-0.765,0.051-1.143,0.053
        c-1.433,0.007-2.867-0.005-4.301,0.009c-0.98,0.01-1.028-0.032-0.893-1.146c0.44-0.029,0.898-0.059,1.41-0.092
        c0-4.638,0-9.27,0-13.982c-0.303-0.028-0.614-0.073-0.926-0.081c-0.448-0.011-0.562-0.233-0.553-0.657
        c0.008-0.415,0.138-0.567,0.559-0.563c1.754,0.017,3.51,0.01,5.266,0.011c0.339,0,0.628,0.005,0.637,0.494
        c0.008,0.45-0.111,0.694-0.589,0.71c-0.274,0.009-0.546,0.062-0.849,0.1c0,1.915,0,3.806,0,5.747c2.223,0,4.394,0,6.632,0
        c0-1.9,0-3.789,0-5.708c-0.353-0.049-0.667-0.098-0.981-0.135c-0.486-0.056-0.465-0.425-0.473-0.767
        c-0.009-0.391,0.262-0.436,0.566-0.435c1.798,0.002,3.596,0.005,5.394,0c0.342-0.001,0.573,0.054,0.569,0.485
        c-0.004,0.571-0.038,0.646-0.568,0.706c-0.233,0.027-0.468,0.048-0.7,0.083C29.516,4.872,29.441,4.919,29.348,4.958z"/>
      <path fill-rule="evenodd" clip-rule="evenodd" fill="#A7572C" d="M134.213,19.877c-0.761,0.023-1.504,0.044-2.247,0.069
        c-0.615,0.021-1.231,0.042-1.847,0.077c-0.348,0.02-0.53-0.151-0.562-0.471c-0.031-0.318-0.062-0.674,0.353-0.789
        c0.182-0.05,0.382-0.033,0.574-0.042c0.567-0.023,0.656-0.107,0.668-0.691c0.01-0.449,0.001-0.898,0.001-1.348
        c0.003-3.769,0.006-7.536,0.008-11.303c0.001-0.683-0.031-0.711-0.731-0.725c-0.23-0.005-0.462-0.024-0.753-0.041
        c0-0.411,0-0.782,0-1.222c0.26-0.013,0.509-0.036,0.758-0.037c1.326-0.004,2.654,0.002,3.98-0.007
        c0.468-0.003,0.825,0.166,1.068,0.568c0.758,1.255,1.502,2.519,2.278,3.762c1.313,2.107,2.647,4.202,3.975,6.301
        c0.093,0.146,0.2,0.282,0.302,0.423c0.062-0.017,0.121-0.033,0.183-0.05c0-0.243,0-0.487,0-0.731c0-2.759,0.001-5.517-0.002-8.274
        c0-0.635-0.046-0.675-0.703-0.687c-0.128-0.002-0.258-0.001-0.385-0.008c-0.411-0.023-0.562-0.333-0.578-0.654
        c-0.019-0.349,0.2-0.634,0.579-0.64c1.197-0.02,2.396-0.012,3.595-0.006c0.371,0.002,0.47,0.267,0.453,0.57
        c-0.018,0.319-0.041,0.659-0.472,0.726c-0.286,0.044-0.721,0.009-0.819,0.172c-0.156,0.261-0.111,0.657-0.111,0.995
        c0,4.41,0.009,8.819,0.014,13.229c0,0.171-0.007,0.343-0.022,0.513c-0.034,0.347-0.194,0.543-0.579,0.532
        c-1.921-0.05-1.542,0.327-2.488-1.269c-0.68-1.148-1.45-2.245-2.154-3.38c-0.762-1.228-1.486-2.478-2.24-3.709
        c-0.612-0.997-1.252-1.976-1.867-2.971c-0.455-0.735-0.888-1.483-1.333-2.223c-0.073-0.12-0.16-0.232-0.307-0.442
        c-0.078,0.229-0.156,0.354-0.156,0.478c0.01,3.616,0.026,7.232,0.043,10.848c0,0.021,0,0.043,0.002,0.064
        c0.021,0.376-0.083,0.85,0.106,1.097c0.151,0.198,0.661,0.122,1.013,0.169C134.277,18.814,134.321,18.92,134.213,19.877z"/>
      <path fill-rule="evenodd" clip-rule="evenodd" fill="#A7572C" d="M97.146,9.524c-0.495-3.002-2.048-5.104-5.129-5.842
        c-2.174-0.521-4.334-0.429-6.415,0.383c-1.431,0.559-2.479,1.606-3.207,2.978c-0.565,1.064-0.773,2.215-0.881,3.386
        c-0.192,2.064-0.105,4.107,0.812,6.021c0.824,1.72,2.145,2.865,4.004,3.397c1.659,0.476,3.318,0.471,5.01,0.231
        c3.026-0.427,4.985-2.491,5.628-5.271c0.229-0.99,0.287-2.021,0.39-2.791C97.276,11.01,97.266,10.258,97.146,9.524z M93.242,16.271
        c-0.801,1.489-1.524,2.579-3.24,2.703c-1.237,0.091-2.465,0.025-3.408-0.921c-0.381-0.381-0.729-0.852-0.927-1.348
        c-0.479-1.2-0.694-2.478-0.677-3.767c0.019-1.494,0.085-2.992,0.228-4.479c0.094-0.983,0.465-1.897,1.122-2.679
        c0.554-0.66,1.257-1.009,2.092-1.093c0.897-0.089,1.793-0.08,2.665,0.21c0.955,0.318,1.613,0.984,1.942,1.898
        c0.286,0.796,0.482,1.639,0.603,2.478C93.641,9.274,93.965,14.926,93.242,16.271z"/>
      <path fill-rule="evenodd" clip-rule="evenodd" fill="#A7572C" d="M80.966,12.256c0.008,0.177,0.012,0.345,0.025,0.511
        c0.03,0.373-0.119,0.54-0.512,0.557c-0.634,0.028-0.664,0.071-0.665,0.735c-0.002,1.605,0.003,3.211,0.012,4.817
        c0.004,0.787-0.034,0.859-0.809,0.998c-2.523,0.451-5.073,0.595-7.594,0.146c-1.906-0.34-3.42-1.335-4.136-3.307
        c-0.779-2.149-0.778-4.356-0.653-6.583c0.062-1.118,0.304-2.209,0.747-3.228c0.604-1.389,1.648-2.389,3.093-2.876
        c1.909-0.643,3.869-0.86,5.875-0.517c0.587,0.101,1.187,0.13,1.774,0.232c0.332,0.058,0.672,0.157,0.962,0.319
        c0.165,0.093,0.323,0.346,0.335,0.536c0.059,0.959,0.073,1.922,0.093,2.883c0.005,0.271-0.05,0.542-0.406,0.53
        C78.774,8,78.353,8.168,78.241,7.616c-0.119-0.583-0.276-1.159-0.406-1.741c-0.156-0.702-0.356-0.925-1.093-0.991
        c-1.039-0.095-2.082-0.2-3.122-0.186c-1.504,0.02-2.696,1.06-3.081,2.523c-0.296,1.127-0.406,2.273-0.394,3.433
        c0.02,1.963-0.101,3.924,0.437,5.864c0.377,1.363,1.89,2.44,3.055,2.382c0.812-0.041,1.627-0.022,2.44-0.006
        c0.374,0.008,0.557-0.115,0.554-0.507c-0.008-1.499-0.009-2.998-0.004-4.497c0.001-0.4-0.174-0.597-0.577-0.591
        c-0.192,0.002-0.385,0.001-0.578-0.01c-0.428-0.023-0.423-0.342-0.436-0.651c-0.013-0.322,0.135-0.466,0.46-0.466
        c1.712,0,3.425-0.009,5.137-0.008C80.734,12.164,80.834,12.217,80.966,12.256z"/>
      <path fill-rule="evenodd" clip-rule="evenodd" fill="#A7572C" d="M204.082,4.606c-0.42,0-0.844,0-1.266,0
        c-1.091,0-2.184,0.013-3.274-0.003c-0.469-0.007-0.652,0.187-0.649,0.648c0.009,1.541-0.009,3.082,0.001,4.623
        c0.003,0.628,0.021,0.628,0.668,0.635c0.534,0.005,1.069,0,1.604,0.019c0.292,0.01,0.449-0.105,0.463-0.395
        c0.017-0.361,0.032-0.723,0.03-1.084c-0.002-0.465,0.27-0.774,0.713-0.789c0.393-0.012,0.561,0.208,0.56,0.741
        c-0.001,1.456-0.009,2.911,0,4.366c0.002,0.353-0.051,0.64-0.452,0.731c-0.488,0.112-0.741-0.072-0.809-0.633
        c-0.062-0.526-0.097-1.054-0.153-1.688c-0.787,0-1.509-0.008-2.229,0.003c-0.354,0.005-0.388,0.271-0.389,0.545
        c0,0.75,0,1.499-0.001,2.247c-0.002,1.179-0.017,2.355-0.003,3.532c0.008,0.618,0.067,0.654,0.673,0.655
        c1.518,0.001,3.035,0,4.605,0c0.251-1.145,0.539-2.239,0.718-3.352c0.087-0.54,0.377-0.514,0.755-0.516
        c0.466-0.003,0.42,0.287,0.417,0.608c-0.013,1.302,0.006,2.604-0.018,3.907c-0.003,0.166-0.15,0.403-0.297,0.478
        c-0.215,0.108-0.489,0.138-0.738,0.137c-2.993-0.02-5.985-0.045-8.978-0.085c-0.699-0.009-1.396-0.08-2.078-0.122
        c-0.154-0.989-0.086-1.075,0.811-1.1c0.554-0.015,0.625-0.075,0.627-0.618c0.02-4.259,0.035-8.518,0.047-12.777
        c0-0.205-0.05-0.41-0.079-0.633c-0.246-0.016-0.436-0.03-0.626-0.039c-0.732-0.038-0.864-0.149-0.853-0.728
        c0.01-0.49,0.115-0.565,0.845-0.566c2.483-0.002,4.966,0,7.448,0c1.007,0,2.012-0.009,3.018-0.001
        c0.516,0.003,0.683,0.151,0.7,0.625c0.041,1.067,0.054,2.136,0.106,3.204c0.018,0.369-0.07,0.591-0.471,0.579
        c-0.364-0.012-0.786,0.129-0.888-0.458C204.49,6.444,204.29,5.595,204.082,4.606z"/>
      <path fill-rule="evenodd" clip-rule="evenodd" fill="#A7572C" d="M128.119,4.699c0,0.335,0,0.609,0,0.884
        c-0.002,3.211,0.022,6.422-0.022,9.633c-0.012,0.799-0.116,1.646-0.411,2.378c-0.524,1.306-1.623,1.955-3,2.254
        c-1.423,0.308-2.854,0.308-4.267,0.175c-1.311-0.122-2.671-0.212-3.772-1.157c-0.652-0.56-1.099-1.219-1.167-2.048
        c-0.119-1.447-0.184-2.902-0.201-4.355c-0.028-2.333,0-4.666,0.006-6.999c0.001-0.717,0-0.749-0.719-0.809
        c-0.463-0.039-0.478-0.337-0.503-0.667c-0.027-0.351,0.091-0.589,0.476-0.618c0.171-0.013,0.342-0.018,0.513-0.017
        c1.583,0.001,3.167,0.018,4.75,0c0.434-0.005,0.643,0.151,0.668,0.574c0.027,0.457-0.155,0.67-0.611,0.714
        c-1.082,0.104-1.078,0.104-1.076,1.17c0.007,3.146,0.01,6.292,0.018,9.44c0,0.299,0.02,0.599,0.039,0.897
        c0.081,1.275,0.433,1.737,1.661,2.148c1.192,0.401,2.406,0.59,3.638,0.201c1.657-0.523,2.282-1.011,2.365-2.815
        c0.045-1.005,0.011-2.012,0.013-3.019c0.007-2.375,0.012-4.751,0.021-7.127c0.003-0.774-0.029-0.816-0.795-0.882
        c-0.496-0.043-0.722-0.271-0.709-0.716c0.011-0.401,0.241-0.61,0.739-0.612c0.962-0.002,1.925,0.008,2.887,0.034
        c0.546,0.015,0.655,0.142,0.651,0.636c-0.003,0.482-0.146,0.63-0.644,0.664C128.52,4.67,128.372,4.681,128.119,4.699z"/>
      <path fill-rule="evenodd" clip-rule="evenodd" fill="#A7572C" d="M102.161,14.97c1.089-0.154,1.162-0.064,1.306,0.876
        c0.104,0.684,0.306,1.356,0.511,2.019c0.052,0.167,0.266,0.347,0.441,0.4c0.601,0.188,1.212,0.396,1.833,0.457
        c0.784,0.078,1.582,0.032,2.374,0.016c1.089-0.022,1.917-0.596,2.152-1.652c0.146-0.649,0.139-1.361,0.059-2.028
        c-0.114-0.952-0.805-1.432-1.681-1.691c-0.546-0.162-1.078-0.372-1.621-0.541c-0.523-0.164-1.048-0.327-1.582-0.446
        c-1.705-0.38-3.143-1.184-3.471-3.004c-0.298-1.653-0.404-3.41,0.941-4.767c0.416-0.419,0.984-0.773,1.547-0.94
        c1.229-0.365,2.521-0.412,3.801-0.422c0.619-0.005,1.242,0.028,1.858,0.093c0.654,0.069,1.311,0.159,1.95,0.31
        c0.369,0.087,0.739,0.303,0.755,0.763c0.035,1.025,0.042,2.052,0.056,3.078c0.001,0.059-0.042,0.118-0.083,0.221
        c-0.341,0-0.694,0-1.102,0c-0.208-0.889-0.416-1.776-0.655-2.794c-1.302-0.218-2.615-0.76-4.054-0.335
        c-0.424,0.125-0.887,0.114-1.2,0.5c-0.648,0.799-0.991,1.845-0.582,2.826c0.447,1.073,1.317,1.376,2.313,1.618
        c1.002,0.244,1.993,0.544,2.973,0.868c0.471,0.157,0.905,0.427,1.355,0.645c0.964,0.466,1.412,1.319,1.664,2.293
        c0.33,1.271,0.27,2.56-0.1,3.803c-0.367,1.236-1.243,2.07-2.484,2.418c-0.87,0.243-1.772,0.417-2.671,0.497
        c-0.913,0.081-1.842,0.058-2.758-0.013c-0.643-0.05-1.274-0.245-1.908-0.389c-0.434-0.099-0.883-0.172-1.286-0.348
        c-0.255-0.11-0.614-0.382-0.624-0.595C102.13,17.472,102.161,16.234,102.161,14.97z"/>
      <path fill-rule="evenodd" clip-rule="evenodd" fill="#A7572C" d="M206.988,14.949c1.058-0.138,0.972-0.111,1.244,0.787
        c0.178,0.587,0.277,1.197,0.411,1.797c0.137,0.602,0.404,0.812,1.008,0.963c1.149,0.287,2.314,0.263,3.482,0.254
        c1.622-0.013,2.599-0.984,2.561-2.601c-0.013-0.521-0.14-1.046-0.27-1.555c-0.163-0.64-0.684-0.964-1.257-1.158
        c-1.079-0.366-2.159-0.763-3.27-1c-0.809-0.173-1.511-0.505-2.203-0.908c-0.923-0.537-1.353-1.421-1.479-2.407
        c-0.139-1.073-0.211-2.173,0.163-3.235c0.444-1.256,1.421-1.937,2.627-2.271c1.926-0.533,3.901-0.354,5.861-0.24
        c0.505,0.029,1.03,0.096,1.496,0.276c0.288,0.111,0.658,0.447,0.687,0.716c0.107,0.974,0.09,1.962,0.11,2.946
        c0.002,0.122-0.054,0.245-0.09,0.398c-0.327,0-0.642,0-1.05,0c-0.161-0.632-0.346-1.282-0.487-1.942
        c-0.15-0.702-0.393-0.982-1.076-1.104c-0.462-0.082-0.93-0.213-1.392-0.201c-0.822,0.023-1.647,0.101-2.458,0.238
        c-0.254,0.043-0.491,0.324-0.688,0.541c-0.971,1.063-0.816,3.639,1.149,4.067c0.907,0.198,1.808,0.441,2.69,0.728
        c1.336,0.434,2.783,0.766,3.535,2.108c0.352,0.626,0.531,1.391,0.619,2.114c0.174,1.446,0.019,2.83-0.948,4.059
        c-0.681,0.864-1.576,1.248-2.569,1.498c-1.51,0.381-3.056,0.284-4.588,0.214c-0.642-0.029-1.276-0.244-1.913-0.384
        c-0.453-0.101-0.913-0.189-1.353-0.334c-0.399-0.131-0.577-0.423-0.565-0.879C207.008,17.284,206.988,16.134,206.988,14.949z"/>
      <path fill-rule="evenodd" clip-rule="evenodd" fill="#A7572C" d="M67.401,19.056c-0.002-0.02-0.02-0.038-0.067-0.123
        c-0.208-0.016-0.466-0.002-0.705-0.064c-0.159-0.041-0.372-0.158-0.421-0.292c-0.586-1.603-1.144-3.215-1.712-4.823
        c-0.654-1.851-1.312-3.7-1.966-5.55c-0.498-1.407-1.014-2.809-1.478-4.227c-0.118-0.361-0.315-0.492-0.636-0.496
        c-0.599-0.007-1.199-0.008-1.796,0.035c-0.18,0.013-0.452,0.138-0.507,0.28c-0.342,0.872-0.638,1.763-0.943,2.65
        c-0.424,1.231-0.832,2.468-1.266,3.696c-0.626,1.77-1.27,3.534-1.907,5.301c-0.348,0.964-0.69,1.93-1.051,2.889
        c-0.111,0.295-0.237,0.569-0.667,0.565c-0.543-0.005-0.588,0.115-0.607,0.646c-0.019,0.513,0.293,0.54,0.662,0.54
        c1.049-0.001,2.097-0.003,3.146,0.001c0.312,0.001,0.539-0.054,0.535-0.453c-0.004-0.513-0.133-0.72-0.563-0.74
        c-0.307-0.015-0.614-0.003-0.914-0.003c-0.016-0.186-0.042-0.256-0.023-0.312c0.419-1.23,0.843-2.46,1.264-3.69
        c0.108-0.316,0.342-0.398,0.652-0.397c1.391,0.008,2.783,0.016,4.174-0.002c0.438-0.005,0.675,0.189,0.811,0.575
        c0.27,0.766,0.551,1.527,0.816,2.295c0.165,0.479,0.307,0.964,0.485,1.531c-0.404,0-0.741,0.006-1.076-0.002
        c-0.486-0.011-0.535,0.323-0.567,0.687c-0.038,0.417,0.199,0.507,0.551,0.507c1.627-0.002,3.253,0.019,4.88,0.002
        C67.473,20.07,67.473,20.046,67.401,19.056z M56.381,13.185c0.702-2.05,1.385-4.043,2.067-6.036
        c0.081,0.005,0.162,0.011,0.243,0.016c0.683,1.98,1.365,3.96,2.074,6.02C59.291,13.185,57.886,13.185,56.381,13.185z"/>
      <path fill-rule="evenodd" clip-rule="evenodd" fill="#A7572C" d="M154.463,19.927c-0.032-0.166-0.11-0.405-0.115-0.647
        c-0.007-0.316,0.156-0.505,0.504-0.538c0.385-0.036,0.923,0.006,1.104-0.22c0.202-0.252,0.096-0.766,0.098-1.165
        c0.019-3.488,0.032-6.976,0.047-10.464c0.003-0.577-0.005-1.155,0.011-1.733c0.011-0.377-0.143-0.55-0.526-0.546
        c-0.834,0.008-1.669,0.009-2.503-0.001c-0.363-0.005-0.469,0.202-0.525,0.511c-0.133,0.71-0.278,1.419-0.432,2.126
        c-0.107,0.498-0.255,0.551-0.909,0.509c-0.473-0.031-0.488-0.327-0.468-0.667c0.045-0.746,0.098-1.493,0.146-2.239
        c0.011-0.171,0.031-0.342,0.022-0.513c-0.048-0.988-0.051-0.985,0.96-0.985c4.108,0,8.217-0.001,12.326-0.003
        c0.573,0,0.679,0.099,0.692,0.656c0.025,1.11,0.049,2.221,0.081,3.332c0.008,0.262-0.083,0.403-0.358,0.414
        c-0.758,0.029-0.945,0.048-1.031-0.729c-0.086-0.78-0.333-1.542-0.527-2.39c-1.02,0-2.017-0.016-3.013,0.019
        c-0.133,0.004-0.335,0.251-0.366,0.413c-0.055,0.287,0.001,0.594,0.001,0.893c-0.009,3.916-0.013,7.832-0.032,11.747
        c-0.005,1.025-0.017,1.037,1.008,1.044c0.67,0.005,0.959,0.387,0.708,0.968c-0.05,0.115-0.241,0.241-0.367,0.241
        c-1.667,0.003-3.333-0.018-5-0.03C155.538,19.924,155.08,19.927,154.463,19.927z"/>
      <path fill-rule="evenodd" clip-rule="evenodd" fill="#A7572C" d="M41.927,12.71c0.085,0.915,0.094,1.846,0.279,2.74
        c0.152,0.736,0.439,1.471,0.798,2.134c0.457,0.843,1.273,1.25,2.222,1.295c0.854,0.042,1.713,0.037,2.567-0.01
        c0.395-0.021,0.793-0.161,1.167-0.306c0.141-0.056,0.272-0.265,0.312-0.428c0.205-0.829,0.38-1.665,0.561-2.501
        c0.095-0.441,0.601-0.733,0.999-0.538c0.1,0.05,0.19,0.229,0.192,0.351c0.013,1.134,0.02,2.27-0.011,3.402
        c-0.004,0.166-0.179,0.402-0.336,0.478c-0.519,0.245-1.048,0.512-1.604,0.624c-1.901,0.387-3.832,0.456-5.734,0.074
        c-2.35-0.472-3.899-1.912-4.531-4.241c-0.638-2.351-0.614-4.719-0.192-7.118c0.258-1.462,0.898-2.701,1.957-3.641
        c0.67-0.594,1.583-1.009,2.457-1.259c2.201-0.63,4.442-0.46,6.665-0.017c0.309,0.062,0.624,0.165,0.892,0.324
        c0.153,0.091,0.293,0.329,0.304,0.509c0.056,0.96,0.068,1.922,0.095,2.883c0.007,0.273-0.016,0.563-0.375,0.539
        c-0.325-0.022-0.764,0.168-0.889-0.378c-0.144-0.625-0.321-1.242-0.464-1.866c-0.134-0.583-0.318-0.768-0.907-0.897
        c-1.318-0.291-2.639-0.297-3.94,0.042c-0.837,0.219-1.381,0.861-1.715,1.615c-0.445,1-0.691,2.062-0.67,3.175
        c0.019,1.004,0.004,2.009,0.004,3.013C41.993,12.708,41.959,12.709,41.927,12.71z"/>
      <path fill-rule="evenodd" clip-rule="evenodd" fill="#A7572C" d="M0.5,11.667C0.656,10.542,0.74,9.343,1,8.183
        C1.613,5.451,3.408,4.09,5.975,3.595C7.964,3.21,9.93,3.372,11.896,3.729c1.084,0.197,1.217,0.369,1.245,1.463
        c0.018,0.705,0.071,1.41,0.098,2.115c0.013,0.318,0.068,0.663-0.417,0.713c-0.563,0.057-0.792-0.052-0.922-0.539
        c-0.167-0.619-0.315-1.243-0.459-1.867c-0.102-0.436-0.307-0.736-0.802-0.758C9.574,4.808,8.5,4.63,7.447,4.72
        C5.874,4.855,5.029,5.923,4.632,7.382c-0.467,1.714-0.466,3.469-0.419,5.224c0.034,1.283,0.092,2.559,0.458,3.811
        c0.389,1.331,1.636,2.553,3.163,2.498c1.02-0.038,2.038,0.07,3.043-0.24c0.413-0.129,0.607-0.335,0.69-0.729
        c0.162-0.773,0.352-1.541,0.511-2.314c0.09-0.436,0.331-0.617,0.769-0.575c0.36,0.035,0.526,0.195,0.508,0.581
        c-0.049,1.047-0.078,2.095-0.099,3.143c-0.008,0.406-0.209,0.613-0.576,0.743c-2.119,0.755-4.282,0.866-6.502,0.577
        c-1.428-0.186-2.657-0.691-3.687-1.705c-0.905-0.893-1.345-2.018-1.566-3.216C0.716,14.05,0.642,12.893,0.5,11.667z"/>
      <path fill-rule="evenodd" clip-rule="evenodd" fill="#A7572C" d="M36.792,4.861c0,4.72,0,9.316,0,13.986
        c0.351,0.02,0.684,0.033,1.016,0.057c0.414,0.029,0.533,0.208,0.511,0.696c-0.018,0.366-0.154,0.511-0.558,0.505
        c-1.754-0.027-3.508-0.007-5.262-0.021c-0.298-0.003-0.67,0.13-0.852-0.259c-0.224-0.481,0.036-0.902,0.576-0.933
        c0.316-0.018,0.634-0.003,1-0.003c0-4.67,0-9.282,0-13.971c-0.303-0.025-0.612-0.05-0.922-0.077
        c-0.586-0.051-0.709-0.173-0.691-0.684c0.019-0.506,0.093-0.574,0.692-0.576c1.797-0.005,3.596,0.002,5.394-0.013
        c0.382-0.003,0.613,0.08,0.62,0.517c0.009,0.527-0.14,0.739-0.628,0.772C37.416,4.876,37.141,4.861,36.792,4.861z"/>
      <path fill-rule="evenodd" clip-rule="evenodd" fill="#A7572C" d="M170.805,11.636c0,2.097-0.004,4.192,0.003,6.29
        c0.002,0.692,0.015,0.653,0.675,0.667c0.293,0.006,0.641,0.138,0.85,0.335c0.134,0.124,0.134,0.505,0.047,0.71
        c-0.063,0.151-0.36,0.284-0.557,0.287c-1.517,0.023-3.034,0.009-4.552,0.014c-0.298,0.001-0.594,0.04-0.893,0.048
        c-0.411,0.011-0.701-0.229-0.71-0.575c-0.012-0.432,0.203-0.706,0.647-0.671c0.942,0.074,1.077-0.005,1.079-1.157
        c0.005-4.043,0.006-8.086,0.009-12.129c0-0.73-0.067-0.792-0.881-0.801c-0.59-0.007-0.859-0.233-0.838-0.7
        c0.019-0.379,0.271-0.617,0.656-0.617c1.797,0.001,3.593,0.001,5.39,0.007c0.62,0.002,0.945,0.436,0.684,0.944
        c-0.082,0.158-0.295,0.267-0.47,0.353c-0.104,0.05-0.252,0.011-0.38,0.013c-0.731,0.007-0.767,0.041-0.767,0.757
        c-0.001,2.075-0.001,4.15-0.001,6.226C170.8,11.636,170.803,11.636,170.805,11.636z"/>
      <path fill-rule="evenodd" clip-rule="evenodd" fill="#A7572C" d="M238.312,13.723c-0.158-0.081-0.305-0.128-0.417-0.217
        c-0.304-0.241-0.234-0.766,0.135-0.801c0.673-0.063,1.358-0.05,2.033,0.003c0.253,0.02,0.495,0.343,0.734,0.333
        c0.271-0.011,0.521-0.326,0.8-0.362c1.068-0.138,2.184-0.397,3.043,0.713c0.788-1,1.885-0.81,2.913-0.834
        c0.757-0.018,1.345,0.748,1.229,1.62c-0.152,1.162-0.374,2.316-0.561,3.475c-0.05,0.315-0.101,0.634-0.104,0.951
        c-0.002,0.122,0.126,0.247,0.194,0.37c0.139-0.077,0.325-0.124,0.4-0.242c0.097-0.15,0.085-0.366,0.154-0.541
        c0.089-0.225,0.212-0.438,0.333-0.682c0.176,0.133,0.305,0.188,0.301,0.233c-0.039,0.541-0.008,1.112-0.182,1.609
        c-0.131,0.371-0.598,0.489-1.028,0.478c-0.363-0.01-0.728,0.019-1.09,0.005c-0.714-0.027-1.176-0.438-1.163-1.157
        c0.016-0.809,0.126-1.617,0.231-2.421c0.076-0.592,0.242-1.174,0.306-1.766c0.026-0.243-0.037-0.636-0.192-0.724
        c-0.217-0.124-0.596-0.108-0.842-0.003c-0.542,0.23-0.836,0.713-0.94,1.288c-0.229,1.259-0.443,2.521-0.661,3.783
        c-0.166,0.965-0.222,1.014-1.194,1.008c-1.256-0.008-1.215,0-0.961-1.257c0.266-1.316,0.465-2.647,0.646-3.979
        c0.038-0.283-0.062-0.799-0.216-0.85c-0.294-0.098-0.712-0.014-1.007,0.136c-0.523,0.266-0.777,0.781-0.866,1.35
        c-0.197,1.267-0.371,2.536-0.559,3.804c-0.113,0.766-0.126,0.773-0.873,0.79c-0.192,0.004-0.386,0.002-0.578,0.001
        c-0.777-0.004-0.864-0.139-0.736-0.922c0.254-1.538,0.482-3.079,0.715-4.62C238.334,14.128,238.312,13.954,238.312,13.723z"/>
      <path fill-rule="evenodd" clip-rule="evenodd" fill="#A7572C" d="M237.387,14.229c-0.155-0.603-0.491-1.065-1.059-1.274
        c-0.527-0.193-1.095-0.304-1.655-0.383c-0.396-0.056-0.811,0.025-1.215,0.003c-1.129-0.064-1.895,0.534-2.496,1.383
        c-0.812,1.149-0.891,2.484-0.705,3.805c0.117,0.827,0.551,1.6,1.449,1.857c0.602,0.172,1.242,0.208,1.865,0.305
        c0.004-0.037,0.009-0.074,0.013-0.112c0.362,0,0.732,0.045,1.087-0.01c0.838-0.126,1.611-0.416,2.057-1.205
        C237.501,17.23,237.788,15.783,237.387,14.229z M235.046,17.084c-0.081,0.485-0.301,0.963-0.536,1.402
        c-0.256,0.479-0.968,0.681-1.461,0.493c0,0-0.677-0.2-0.677-1.745c-0.027-0.008-0.055-0.016-0.082-0.022
        c0.223-0.992,0.433-1.987,0.676-2.975c0.115-0.465,0.804-0.854,1.363-0.823c0.506,0.027,0.97,0.421,0.963,1.006
        C235.281,15.31,235.191,16.206,235.046,17.084z"/>
      <path fill-rule="evenodd" clip-rule="evenodd" fill="#A7572C" d="M149.313,12.335c-0.941,0-1.883-0.003-2.823,0.001
        c-0.577,0.003-0.656-0.067-0.7-0.653c-0.005-0.064-0.017-0.127-0.018-0.192c-0.02-0.757,0.029-0.869,0.81-0.886
        c1.902-0.042,3.808-0.028,5.711-0.037c0.334-0.001,0.488,0.143,0.512,0.502c0.077,1.231,0.06,1.259-1.181,1.251
        c-0.771-0.005-1.541-0.001-2.311-0.001C149.313,12.326,149.313,12.331,149.313,12.335z"/>
      <path fill-rule="evenodd" clip-rule="evenodd" fill="#A7572C" d="M228.604,15.35c0.361,0.138,0.75,0.225,1.077-0.098
        c0.296-0.293,0.441-1.234,0.303-1.625c-0.26-0.733-0.871-0.946-1.533-1.031c-0.485-0.063-0.99,0.031-1.475-0.032
        c-1.35-0.177-3.021,1.104-3.208,2.612c-0.053,0.424-0.116,0.851-0.219,1.264c-0.014,0.055-0.034,0.113-0.06,0.172
        c0.001,0.315,0.023,0.717,0.084,1.222c0.032,0.044,0.053,0.074,0.062,0.107c0.38,1.364,1.033,1.875,2.449,1.893
        c0.557,0.007,1.119-0.057,1.669,0.002c1.165,0.124,2.07-1.251,1.812-2.359c-0.389-0.114-0.683-0.063-0.842,0.387
        c-0.101,0.278-0.257,0.544-0.431,0.785c-0.307,0.43-0.781,0.363-1.229,0.358c-1.053-0.013-1.254-0.228-1.288-1.286
        c-0.036-1.107,0.191-2.172,0.504-3.216c0.293-0.982,0.838-1.322,1.909-0.998c-0.025,0.333-0.041,0.688-0.082,1.042
        C228.06,14.954,228.256,15.218,228.604,15.35z"/>
      <polygon fill="#A7572C" points="220.925,15.274 221.543,17.441 223.729,16.895 222.163,18.514 223.729,20.135 221.543,19.587 
    220.925,21.755 220.305,19.587 218.118,20.135 219.687,18.514 218.118,16.895 220.305,17.441   "/>
</svg>