<svg xmlns="http://www.w3.org/2000/svg" viewBox="0 0 251 37">
  <path fill="#A8551B" d="M53.331,23.667c-0.846,0.642-1.91,0.962-3.192,0.962c-0.904,0-1.688-0.146-2.351-0.437
    c-0.664-0.293-1.221-0.699-1.673-1.225c-0.452-0.525-0.791-1.152-1.017-1.881c-0.226-0.729-0.354-1.523-0.383-2.383
    c0-0.861,0.131-1.647,0.394-2.362c0.262-0.714,0.63-1.334,1.104-1.858c0.474-0.525,1.035-0.933,1.684-1.225
    c0.647-0.292,1.359-0.437,2.131-0.437c1.005,0,1.84,0.208,2.503,0.623c0.663,0.416,1.196,0.944,1.597,1.585
    c0.4,0.641,0.677,1.341,0.831,2.099c0.153,0.758,0.214,1.479,0.186,2.166h-8.462c-0.015,0.496,0.043,0.966,0.174,1.41
    c0.132,0.445,0.342,0.838,0.634,1.18c0.292,0.344,0.664,0.618,1.116,0.821c0.451,0.204,0.983,0.307,1.596,0.307
    c0.786,0,1.432-0.184,1.935-0.547c0.503-0.364,0.834-0.919,0.995-1.662h1.837C54.723,22.071,54.176,23.025,53.331,23.667z
     M52.883,16.407c-0.168-0.394-0.394-0.732-0.678-1.018c-0.284-0.283-0.62-0.509-1.005-0.677c-0.387-0.168-0.814-0.251-1.28-0.251
    c-0.481,0-0.915,0.083-1.301,0.251s-0.718,0.397-0.995,0.689c-0.278,0.291-0.497,0.63-0.656,1.017
    c-0.161,0.386-0.255,0.798-0.284,1.235h6.494C53.149,17.217,53.05,16.801,52.883,16.407z"/>
  <path fill="#A8551B" d="M65.751,24.629c-0.481,0-0.863-0.135-1.147-0.404c-0.285-0.269-0.427-0.711-0.427-1.323
    c-0.51,0.612-1.105,1.055-1.782,1.323c-0.677,0.27-1.411,0.404-2.198,0.404c-0.51,0-0.992-0.055-1.443-0.163
    c-0.452-0.11-0.85-0.292-1.191-0.546c-0.344-0.256-0.613-0.585-0.81-0.985c-0.196-0.401-0.294-0.886-0.294-1.454
    c0-0.642,0.109-1.166,0.328-1.575c0.218-0.407,0.506-0.739,0.864-0.994c0.357-0.255,0.766-0.449,1.224-0.581
    c0.459-0.131,0.93-0.24,1.411-0.328c0.511-0.102,0.996-0.178,1.455-0.229c0.459-0.051,0.863-0.124,1.213-0.219
    c0.35-0.094,0.626-0.232,0.831-0.416c0.204-0.182,0.306-0.448,0.306-0.798c0-0.408-0.077-0.736-0.23-0.983
    c-0.153-0.248-0.35-0.438-0.59-0.57c-0.241-0.131-0.51-0.219-0.809-0.261c-0.299-0.044-0.594-0.066-0.885-0.066
    c-0.787,0-1.444,0.149-1.968,0.449c-0.525,0.298-0.81,0.863-0.853,1.694h-1.859c0.029-0.7,0.175-1.291,0.438-1.772
    c0.262-0.48,0.612-0.87,1.05-1.169c0.437-0.298,0.939-0.514,1.508-0.645s1.167-0.196,1.793-0.196c0.51,0,1.017,0.036,1.519,0.109
    c0.503,0.072,0.959,0.222,1.367,0.447c0.408,0.226,0.736,0.544,0.984,0.952c0.248,0.408,0.371,0.94,0.371,1.596v5.817
    c0,0.438,0.026,0.759,0.077,0.962c0.051,0.204,0.223,0.307,0.514,0.307c0.161,0,0.349-0.037,0.568-0.11v1.443
    C66.764,24.533,66.32,24.629,65.751,24.629z M63.149,18.933c-0.38,0.08-0.777,0.146-1.192,0.196
    c-0.416,0.052-0.835,0.11-1.257,0.177c-0.424,0.063-0.802,0.17-1.138,0.314c-0.335,0.147-0.608,0.355-0.819,0.625
    c-0.211,0.27-0.318,0.638-0.318,1.104c0,0.308,0.062,0.565,0.187,0.777c0.124,0.211,0.284,0.383,0.48,0.514
    c0.197,0.131,0.43,0.225,0.7,0.283c0.27,0.06,0.543,0.089,0.821,0.089c0.612,0,1.136-0.085,1.574-0.252
    c0.437-0.168,0.794-0.38,1.071-0.634c0.277-0.256,0.481-0.532,0.612-0.831s0.197-0.58,0.197-0.843V18.55
    C63.834,18.725,63.528,18.853,63.149,18.933z"/>
  <path fill="#A8551B" d="M70.233,21.862c0.175,0.285,0.404,0.511,0.689,0.679s0.604,0.287,0.962,0.36
    c0.357,0.073,0.725,0.11,1.104,0.11c0.292,0,0.597-0.021,0.918-0.066c0.32-0.044,0.616-0.124,0.885-0.24
    c0.27-0.117,0.492-0.289,0.667-0.514c0.175-0.227,0.263-0.514,0.263-0.865c0-0.48-0.183-0.844-0.547-1.092
    c-0.365-0.248-0.82-0.448-1.367-0.603c-0.546-0.152-1.14-0.29-1.782-0.414s-1.235-0.299-1.782-0.525
    c-0.547-0.226-1.002-0.543-1.367-0.952c-0.365-0.407-0.547-0.976-0.547-1.705c0-0.569,0.128-1.057,0.383-1.466
    c0.254-0.407,0.583-0.739,0.984-0.995c0.401-0.254,0.853-0.444,1.355-0.568s1.002-0.186,1.498-0.186
    c0.641,0,1.232,0.054,1.771,0.164c0.54,0.109,1.018,0.299,1.433,0.568c0.416,0.27,0.747,0.634,0.995,1.094
    c0.248,0.459,0.394,1.031,0.437,1.716h-1.858c-0.029-0.365-0.124-0.667-0.285-0.908c-0.159-0.241-0.364-0.434-0.612-0.579
    c-0.248-0.146-0.521-0.251-0.82-0.317c-0.299-0.065-0.601-0.098-0.908-0.098c-0.276,0-0.558,0.022-0.841,0.066
    c-0.284,0.042-0.543,0.12-0.777,0.229c-0.234,0.11-0.422,0.256-0.568,0.437c-0.146,0.183-0.219,0.42-0.219,0.711
    c0,0.321,0.113,0.587,0.339,0.798c0.226,0.211,0.514,0.387,0.864,0.525c0.35,0.138,0.744,0.255,1.181,0.35s0.875,0.194,1.312,0.295
    c0.466,0.102,0.921,0.226,1.367,0.372c0.443,0.146,0.837,0.338,1.18,0.579c0.342,0.241,0.619,0.544,0.831,0.908
    c0.212,0.363,0.318,0.815,0.318,1.355c0,0.686-0.143,1.253-0.427,1.705c-0.285,0.453-0.656,0.817-1.115,1.094
    c-0.459,0.277-0.977,0.47-1.553,0.58c-0.576,0.108-1.148,0.163-1.716,0.163c-0.627,0-1.225-0.065-1.793-0.196
    c-0.568-0.132-1.071-0.347-1.509-0.646c-0.437-0.297-0.787-0.691-1.049-1.18c-0.262-0.488-0.408-1.083-0.437-1.783h1.859
    C69.963,21.233,70.058,21.579,70.233,21.862z"/>
  <path fill="#A8551B" d="M83.54,27.274c-0.212,0.38-0.445,0.689-0.7,0.93s-0.535,0.416-0.842,0.525
    c-0.305,0.109-0.67,0.163-1.094,0.163c-0.218,0-0.437-0.015-0.656-0.043c-0.219-0.029-0.43-0.08-0.634-0.153V26.99
    c0.175,0.058,0.353,0.116,0.536,0.175c0.182,0.059,0.368,0.088,0.557,0.088c0.379,0,0.685-0.088,0.918-0.263
    c0.233-0.174,0.438-0.43,0.612-0.766l0.765-1.902l-4.482-11.239h2.1l3.302,9.249h0.043l3.17-9.249h1.968l-4.92,12.793
    C83.966,26.43,83.75,26.896,83.54,27.274z"/>
  <path fill="#A8551B" d="M100.497,21.983h-0.044c-0.467,0.889-1.049,1.556-1.749,2.001c-0.7,0.444-1.553,0.667-2.559,0.667
    c-0.846,0-1.574-0.161-2.186-0.481c-0.613-0.321-1.115-0.751-1.509-1.29c-0.394-0.54-0.686-1.162-0.875-1.869
    c-0.19-0.707-0.285-1.447-0.285-2.22c0-0.831,0.102-1.607,0.307-2.329c0.204-0.721,0.513-1.344,0.929-1.87
    c0.415-0.524,0.937-0.939,1.563-1.246c0.626-0.306,1.363-0.458,2.208-0.458c0.452,0,0.897,0.062,1.333,0.186
    c0.438,0.124,0.842,0.303,1.214,0.536s0.696,0.525,0.973,0.875c0.277,0.349,0.488,0.743,0.634,1.18h0.044V8.776h0.831v15.613h-0.831
    V21.983z M96.32,23.93c0.714,0,1.33-0.146,1.848-0.437c0.517-0.293,0.948-0.68,1.29-1.161c0.343-0.479,0.598-1.029,0.766-1.649
    c0.167-0.62,0.251-1.251,0.251-1.892c0-0.656-0.084-1.293-0.251-1.914c-0.168-0.62-0.419-1.172-0.755-1.662
    c-0.335-0.488-0.769-0.878-1.301-1.17c-0.532-0.291-1.156-0.437-1.87-0.437c-0.743,0-1.377,0.143-1.902,0.427
    c-0.525,0.284-0.958,0.667-1.301,1.148c-0.342,0.48-0.59,1.035-0.743,1.661c-0.153,0.627-0.23,1.276-0.23,1.946
    c0,0.656,0.084,1.294,0.251,1.914c0.168,0.619,0.423,1.169,0.766,1.65c0.342,0.48,0.777,0.864,1.301,1.149
    C94.965,23.786,95.591,23.93,96.32,23.93z"/>
  <path fill="#A8551B" d="M104.17,11.028V8.776h0.831v2.252H104.17z M104.17,24.389v-11.24h0.831v11.24H104.17z"/>
  <path fill="#A8551B" d="M116.918,13.149v10.649c0,0.627-0.072,1.235-0.218,1.825c-0.146,0.591-0.396,1.113-0.753,1.563
    c-0.356,0.453-0.847,0.813-1.472,1.084c-0.625,0.269-1.418,0.404-2.377,0.404c-0.596,0-1.156-0.062-1.679-0.187
    c-0.524-0.124-0.982-0.321-1.375-0.59c-0.393-0.271-0.709-0.626-0.949-1.071c-0.24-0.444-0.375-0.995-0.404-1.65h0.831
    c0.044,0.495,0.167,0.917,0.372,1.267c0.203,0.352,0.469,0.638,0.798,0.864c0.328,0.226,0.696,0.39,1.104,0.492
    c0.409,0.102,0.846,0.152,1.313,0.152c0.772,0,1.417-0.116,1.935-0.349c0.517-0.233,0.929-0.536,1.235-0.909
    c0.307-0.37,0.521-0.793,0.645-1.267c0.124-0.475,0.186-0.951,0.186-1.433v-2.581h-0.063c-0.393,0.832-0.928,1.466-1.604,1.902
    c-0.677,0.437-1.495,0.657-2.455,0.657c-0.83,0-1.546-0.143-2.15-0.427c-0.603-0.285-1.105-0.679-1.504-1.182
    c-0.401-0.503-0.699-1.089-0.895-1.761c-0.197-0.67-0.295-1.398-0.295-2.185c0-0.744,0.105-1.451,0.317-2.122
    c0.21-0.67,0.521-1.258,0.929-1.761c0.409-0.501,0.916-0.903,1.521-1.202c0.604-0.298,1.3-0.447,2.088-0.447
    c0.888,0,1.708,0.226,2.459,0.678c0.75,0.452,1.286,1.093,1.607,1.924h0.044v-2.34H116.918z M111.999,13.608
    c-0.687,0-1.28,0.139-1.783,0.416c-0.502,0.277-0.917,0.643-1.246,1.094c-0.328,0.452-0.576,0.965-0.743,1.541
    c-0.168,0.576-0.251,1.163-0.251,1.761c0,0.656,0.083,1.28,0.251,1.87c0.167,0.589,0.422,1.104,0.765,1.541
    c0.342,0.438,0.765,0.783,1.268,1.038c0.503,0.256,1.083,0.384,1.739,0.384c0.684,0,1.282-0.132,1.792-0.395
    c0.51-0.262,0.936-0.618,1.279-1.07c0.342-0.452,0.598-0.967,0.765-1.542c0.167-0.576,0.251-1.185,0.251-1.826
    c0-0.626-0.084-1.232-0.251-1.815c-0.167-0.583-0.423-1.097-0.765-1.542c-0.343-0.444-0.769-0.797-1.279-1.06
    C113.281,13.739,112.683,13.608,111.999,13.608z"/>
  <path fill="#A8551B" d="M119.586,11.028V8.776h0.831v2.252H119.586z M119.586,24.389v-11.24h0.831v11.24H119.586z"/>
  <path fill="#A8551B" d="M127.195,13.871h-2.449v7.85c0,0.452,0.051,0.809,0.153,1.071c0.102,0.263,0.259,0.463,0.47,0.601
    c0.211,0.14,0.467,0.223,0.766,0.252s0.646,0.037,1.038,0.022v0.722c-0.422,0.029-0.834,0.026-1.235-0.011
    c-0.4-0.037-0.753-0.146-1.061-0.328c-0.305-0.183-0.55-0.456-0.732-0.82c-0.183-0.365-0.259-0.868-0.23-1.509v-7.85h-2.077v-0.722
    h2.077V9.65h0.831v3.499h2.449V13.871z"/>
  <path fill="#A8551B" d="M136.182,22.158h-0.043c-0.132,0.336-0.32,0.651-0.568,0.952c-0.249,0.298-0.552,0.563-0.908,0.798
    c-0.356,0.233-0.761,0.414-1.213,0.546c-0.452,0.131-0.948,0.197-1.486,0.197c-1.196,0-2.122-0.259-2.778-0.777
    c-0.655-0.517-0.983-1.315-0.983-2.394c0-0.657,0.131-1.191,0.394-1.607c0.262-0.416,0.594-0.744,0.995-0.983
    c0.4-0.241,0.846-0.412,1.334-0.515c0.488-0.102,0.959-0.175,1.41-0.218l1.291-0.109c0.597-0.044,1.066-0.112,1.409-0.208
    c0.343-0.095,0.602-0.226,0.776-0.393c0.175-0.168,0.285-0.384,0.328-0.646c0.043-0.263,0.065-0.591,0.065-0.984
    c0-0.307-0.059-0.591-0.175-0.853c-0.117-0.263-0.299-0.496-0.547-0.7c-0.247-0.205-0.569-0.365-0.963-0.481
    c-0.393-0.116-0.873-0.175-1.442-0.175c-1.006,0-1.819,0.248-2.438,0.744c-0.619,0.495-0.958,1.247-1.017,2.252h-0.831
    c0.058-1.239,0.456-2.169,1.192-2.789s1.781-0.929,3.138-0.929c1.355,0,2.343,0.266,2.963,0.798c0.62,0.532,0.929,1.228,0.929,2.088
    v6.538c0,0.161,0.004,0.322,0.012,0.481c0.008,0.16,0.032,0.307,0.076,0.438c0.043,0.131,0.116,0.238,0.219,0.317
    c0.102,0.08,0.248,0.12,0.438,0.12c0.146,0,0.35-0.022,0.612-0.065v0.699c-0.22,0.059-0.446,0.088-0.678,0.088
    c-0.336,0-0.602-0.044-0.8-0.132c-0.196-0.087-0.344-0.203-0.448-0.349c-0.101-0.147-0.169-0.318-0.206-0.516
    c-0.037-0.196-0.056-0.41-0.056-0.645V22.158z M136.182,18.003c-0.204,0.248-0.513,0.416-0.929,0.503
    c-0.415,0.086-0.878,0.153-1.388,0.197l-1.4,0.13c-0.409,0.044-0.816,0.106-1.225,0.187c-0.409,0.08-0.775,0.215-1.104,0.404
    c-0.328,0.189-0.593,0.448-0.798,0.777c-0.204,0.327-0.305,0.754-0.305,1.278c0,0.83,0.261,1.446,0.785,1.847
    c0.525,0.402,1.247,0.603,2.165,0.603c0.948,0,1.698-0.172,2.254-0.515c0.554-0.342,0.976-0.735,1.268-1.18s0.477-0.876,0.557-1.291
    s0.12-0.695,0.12-0.843V18.003z"/>
  <path fill="#A8551B" d="M140.687,8.776v15.613h-0.831V8.776H140.687z"/>
  <path fill="#A8551B" d="M153.5,24.389v-1.531h-0.043c-0.307,0.628-0.787,1.08-1.444,1.356c-0.655,0.276-1.377,0.415-2.164,0.415
    c-0.874,0-1.637-0.159-2.284-0.481c-0.649-0.32-1.189-0.751-1.619-1.29s-0.755-1.166-0.974-1.88
    c-0.218-0.713-0.326-1.473-0.326-2.274c0-0.802,0.104-1.561,0.316-2.275c0.211-0.714,0.532-1.337,0.961-1.869
    c0.431-0.532,0.97-0.955,1.619-1.268c0.647-0.314,1.403-0.47,2.263-0.47c0.291,0,0.605,0.029,0.941,0.087
    c0.334,0.057,0.669,0.157,1.005,0.295c0.336,0.139,0.652,0.321,0.951,0.547s0.55,0.506,0.755,0.841h0.043V8.776h1.86v15.613H153.5z
     M146.82,20.376c0.139,0.502,0.35,0.95,0.634,1.345c0.284,0.394,0.648,0.707,1.095,0.941c0.443,0.231,0.965,0.35,1.562,0.35
    c0.628,0,1.159-0.125,1.598-0.372c0.438-0.249,0.793-0.572,1.07-0.973s0.478-0.856,0.603-1.367c0.123-0.51,0.186-1.027,0.186-1.552
    c0-0.555-0.066-1.09-0.198-1.608c-0.131-0.517-0.337-0.973-0.623-1.367c-0.283-0.393-0.651-0.711-1.104-0.951
    c-0.451-0.24-0.998-0.36-1.64-0.36c-0.627,0-1.159,0.124-1.597,0.371c-0.437,0.249-0.787,0.577-1.05,0.985
    c-0.262,0.408-0.451,0.874-0.568,1.399c-0.117,0.524-0.174,1.064-0.174,1.617C146.613,19.359,146.682,19.873,146.82,20.376z"/>
  <path fill="#A8551B" d="M157.96,16.418c0.234-0.722,0.584-1.349,1.051-1.882c0.467-0.531,1.042-0.95,1.728-1.256
    c0.685-0.307,1.472-0.459,2.361-0.459c0.903,0,1.695,0.152,2.372,0.459c0.679,0.306,1.25,0.725,1.717,1.256
    c0.467,0.533,0.815,1.16,1.05,1.882c0.232,0.721,0.35,1.498,0.35,2.329c0,0.831-0.117,1.603-0.35,2.316
    c-0.234,0.716-0.583,1.339-1.05,1.871c-0.467,0.533-1.038,0.947-1.717,1.246c-0.677,0.3-1.469,0.448-2.372,0.448
    c-0.89,0-1.677-0.148-2.361-0.448c-0.686-0.299-1.261-0.713-1.728-1.246c-0.467-0.532-0.816-1.155-1.051-1.871
    c-0.231-0.713-0.35-1.485-0.35-2.316C157.61,17.916,157.729,17.14,157.96,16.418z M159.853,20.573
    c0.182,0.531,0.433,0.977,0.754,1.333c0.32,0.358,0.695,0.631,1.126,0.82s0.886,0.285,1.367,0.285s0.937-0.096,1.366-0.285
    c0.432-0.189,0.807-0.462,1.126-0.82c0.32-0.356,0.573-0.802,0.755-1.333c0.183-0.533,0.274-1.142,0.274-1.826
    c0-0.686-0.092-1.294-0.274-1.827c-0.182-0.532-0.435-0.98-0.755-1.344c-0.319-0.364-0.694-0.642-1.126-0.831
    c-0.43-0.189-0.885-0.284-1.366-0.284s-0.937,0.095-1.367,0.284s-0.806,0.467-1.126,0.831c-0.321,0.364-0.572,0.812-0.754,1.344
    c-0.183,0.533-0.272,1.141-0.272,1.827C159.58,19.432,159.67,20.04,159.853,20.573z"/>
  <path fill="#A8551B" d="M180.002,24.389l-2.296-8.987h-0.044l-2.274,8.987h-2.012l-3.629-11.306h2.056l2.559,9.249h0.044
    l2.272-9.249h2.033l2.362,9.249h0.044l2.538-9.249h1.923l-3.608,11.306H180.002z"/>
  <path fill="#A8551B" d="M189.098,13.083v1.794h0.044c0.772-1.37,1.997-2.055,3.675-2.055c0.743,0,1.362,0.102,1.858,0.305
    c0.496,0.205,0.896,0.489,1.203,0.853c0.304,0.365,0.521,0.798,0.644,1.301c0.124,0.503,0.187,1.061,0.187,1.673v7.435h-1.857
    v-7.653c0-0.699-0.205-1.254-0.614-1.662c-0.408-0.407-0.97-0.612-1.683-0.612c-0.569,0-1.061,0.087-1.476,0.262
    c-0.415,0.175-0.763,0.422-1.039,0.743s-0.485,0.696-0.623,1.127c-0.139,0.43-0.208,0.9-0.208,1.41v6.385h-1.857V13.083H189.098z"/>
  <path fill="#A8551B" d="M201.476,8.776v15.613h-1.859V8.776H201.476z"/>
  <path fill="#A8551B" d="M204.099,16.418c0.232-0.722,0.583-1.349,1.05-1.882c0.466-0.531,1.043-0.95,1.727-1.256
    c0.687-0.307,1.474-0.459,2.362-0.459c0.902,0,1.695,0.152,2.372,0.459c0.679,0.306,1.25,0.725,1.717,1.256
    c0.467,0.533,0.817,1.16,1.051,1.882c0.232,0.721,0.35,1.498,0.35,2.329c0,0.831-0.117,1.603-0.35,2.316
    c-0.233,0.716-0.584,1.339-1.051,1.871c-0.467,0.533-1.038,0.947-1.717,1.246c-0.677,0.3-1.47,0.448-2.372,0.448
    c-0.889,0-1.676-0.148-2.362-0.448c-0.684-0.299-1.261-0.713-1.727-1.246c-0.467-0.532-0.817-1.155-1.05-1.871
    c-0.232-0.713-0.349-1.485-0.349-2.316C203.75,17.916,203.866,17.14,204.099,16.418z M205.989,20.573
    c0.184,0.531,0.435,0.977,0.756,1.333c0.32,0.358,0.694,0.631,1.126,0.82c0.43,0.189,0.885,0.285,1.366,0.285
    s0.936-0.096,1.365-0.285c0.432-0.189,0.807-0.462,1.129-0.82c0.319-0.356,0.57-0.802,0.753-1.333
    c0.183-0.533,0.273-1.142,0.273-1.826c0-0.686-0.091-1.294-0.273-1.827c-0.183-0.532-0.434-0.98-0.753-1.344
    c-0.322-0.364-0.697-0.642-1.129-0.831c-0.43-0.189-0.884-0.284-1.365-0.284s-0.937,0.095-1.366,0.284
    c-0.432,0.189-0.806,0.467-1.126,0.831c-0.321,0.364-0.572,0.812-0.756,1.344c-0.182,0.533-0.272,1.141-0.272,1.827
    C205.717,19.432,205.808,20.04,205.989,20.573z"/>
  <path fill="#A8551B" d="M225.593,24.629c-0.479,0-0.863-0.135-1.146-0.404c-0.285-0.269-0.428-0.711-0.428-1.323
    c-0.51,0.612-1.104,1.055-1.782,1.323c-0.678,0.27-1.409,0.404-2.196,0.404c-0.511,0-0.992-0.055-1.444-0.163
    c-0.451-0.11-0.85-0.292-1.19-0.546c-0.343-0.256-0.613-0.585-0.81-0.985c-0.196-0.401-0.296-0.886-0.296-1.454
    c0-0.642,0.109-1.166,0.329-1.575c0.217-0.407,0.507-0.739,0.863-0.994c0.357-0.255,0.765-0.449,1.224-0.581
    c0.459-0.131,0.93-0.24,1.409-0.328c0.511-0.102,0.996-0.178,1.455-0.229c0.46-0.051,0.864-0.124,1.215-0.219
    c0.35-0.094,0.625-0.232,0.83-0.416c0.203-0.182,0.306-0.448,0.306-0.798c0-0.408-0.077-0.736-0.229-0.983
    c-0.153-0.248-0.351-0.438-0.591-0.57c-0.24-0.131-0.511-0.219-0.809-0.261c-0.299-0.044-0.594-0.066-0.887-0.066
    c-0.787,0-1.442,0.149-1.968,0.449c-0.524,0.298-0.81,0.863-0.853,1.694h-1.859c0.03-0.7,0.177-1.291,0.438-1.772
    c0.264-0.48,0.612-0.87,1.05-1.169c0.438-0.298,0.94-0.514,1.51-0.645c0.568-0.131,1.166-0.196,1.793-0.196
    c0.51,0,1.017,0.036,1.521,0.109c0.502,0.072,0.958,0.222,1.366,0.447c0.407,0.226,0.735,0.544,0.984,0.952
    c0.247,0.408,0.37,0.94,0.37,1.596v5.817c0,0.438,0.025,0.759,0.078,0.962c0.05,0.204,0.221,0.307,0.514,0.307
    c0.159,0,0.349-0.037,0.568-0.11v1.443C226.606,24.533,226.162,24.629,225.593,24.629z M222.991,18.933
    c-0.38,0.08-0.776,0.146-1.191,0.196c-0.418,0.052-0.836,0.11-1.257,0.177c-0.425,0.063-0.803,0.17-1.139,0.314
    c-0.334,0.147-0.606,0.355-0.819,0.625c-0.211,0.27-0.317,0.638-0.317,1.104c0,0.308,0.063,0.565,0.185,0.777
    c0.126,0.211,0.286,0.383,0.482,0.514s0.431,0.225,0.7,0.283c0.27,0.06,0.542,0.089,0.82,0.089c0.611,0,1.136-0.085,1.574-0.252
    c0.438-0.168,0.794-0.38,1.071-0.634c0.277-0.256,0.48-0.532,0.612-0.831c0.131-0.299,0.196-0.58,0.196-0.843V18.55
    C223.677,18.725,223.37,18.853,222.991,18.933z"/>
  <path fill="#A8551B" d="M236.898,24.389v-1.531h-0.044c-0.307,0.628-0.788,1.08-1.442,1.356c-0.658,0.276-1.379,0.415-2.165,0.415
    c-0.876,0-1.637-0.159-2.286-0.481c-0.647-0.32-1.188-0.751-1.617-1.29c-0.432-0.539-0.755-1.166-0.973-1.88
    c-0.22-0.713-0.329-1.473-0.329-2.274c0-0.802,0.105-1.561,0.318-2.275c0.21-0.714,0.53-1.337,0.961-1.869
    c0.43-0.532,0.97-0.955,1.617-1.268c0.648-0.314,1.403-0.47,2.265-0.47c0.291,0,0.604,0.029,0.94,0.087
    c0.335,0.057,0.67,0.157,1.005,0.295c0.336,0.139,0.652,0.321,0.951,0.547s0.551,0.506,0.755,0.841h0.044V8.776h1.858v15.613
    H236.898z M230.218,20.376c0.14,0.502,0.351,0.95,0.634,1.345c0.285,0.394,0.649,0.707,1.095,0.941
    c0.443,0.231,0.965,0.35,1.562,0.35c0.626,0,1.158-0.125,1.596-0.372c0.438-0.249,0.795-0.572,1.073-0.973
    c0.276-0.4,0.478-0.856,0.6-1.367c0.125-0.51,0.186-1.027,0.186-1.552c0-0.555-0.064-1.09-0.196-1.608
    c-0.131-0.517-0.339-0.973-0.623-1.367c-0.283-0.393-0.653-0.711-1.105-0.951c-0.45-0.24-0.997-0.36-1.639-0.36
    c-0.627,0-1.159,0.124-1.597,0.371c-0.438,0.249-0.786,0.577-1.049,0.985c-0.264,0.408-0.452,0.874-0.569,1.399
    c-0.116,0.524-0.174,1.064-0.174,1.617C230.011,19.359,230.08,19.873,230.218,20.376z"/>
  <path fill="#A8551B" d="M243.043,21.862c0.176,0.285,0.404,0.511,0.689,0.679c0.283,0.168,0.604,0.287,0.961,0.36
    c0.355,0.073,0.725,0.11,1.104,0.11c0.292,0,0.597-0.021,0.919-0.066c0.319-0.044,0.615-0.124,0.885-0.24
    c0.269-0.117,0.492-0.289,0.667-0.514c0.175-0.227,0.263-0.514,0.263-0.865c0-0.48-0.184-0.844-0.548-1.092
    c-0.363-0.248-0.819-0.448-1.365-0.603c-0.547-0.152-1.142-0.29-1.783-0.414c-0.641-0.124-1.235-0.299-1.782-0.525
    c-0.545-0.226-1.002-0.543-1.367-0.952c-0.363-0.407-0.546-0.976-0.546-1.705c0-0.569,0.127-1.057,0.384-1.466
    c0.254-0.407,0.581-0.739,0.984-0.995c0.4-0.254,0.852-0.444,1.354-0.568s1.002-0.186,1.498-0.186c0.641,0,1.231,0.054,1.771,0.164
    c0.539,0.109,1.017,0.299,1.433,0.568c0.415,0.27,0.746,0.634,0.995,1.094c0.247,0.459,0.393,1.031,0.438,1.716h-1.859
    c-0.029-0.365-0.125-0.667-0.284-0.908c-0.16-0.241-0.364-0.434-0.613-0.579c-0.248-0.146-0.521-0.251-0.819-0.317
    c-0.299-0.065-0.602-0.098-0.908-0.098c-0.275,0-0.557,0.022-0.841,0.066c-0.284,0.042-0.545,0.12-0.776,0.229
    c-0.233,0.11-0.423,0.256-0.568,0.437c-0.146,0.183-0.22,0.42-0.22,0.711c0,0.321,0.113,0.587,0.34,0.798
    c0.226,0.211,0.514,0.387,0.863,0.525c0.35,0.138,0.742,0.255,1.181,0.35c0.438,0.095,0.874,0.194,1.312,0.295
    c0.467,0.102,0.923,0.226,1.368,0.372c0.444,0.146,0.838,0.338,1.181,0.579c0.341,0.241,0.618,0.544,0.83,0.908
    c0.211,0.363,0.318,0.815,0.318,1.355c0,0.686-0.142,1.253-0.428,1.705c-0.284,0.453-0.656,0.817-1.115,1.094
    c-0.459,0.277-0.977,0.47-1.552,0.58c-0.576,0.108-1.149,0.163-1.716,0.163c-0.629,0-1.226-0.065-1.794-0.196
    c-0.568-0.132-1.072-0.347-1.509-0.646c-0.438-0.297-0.787-0.691-1.049-1.18c-0.263-0.488-0.409-1.083-0.438-1.783h1.859
    C242.773,21.233,242.868,21.579,243.043,21.862z"/>
  <path fill="#A8551B" d="M18.611,1.32c9.473,0,17.18,7.707,17.18,17.18c0,9.474-7.708,17.181-17.18,17.181
    c-9.474,0-17.181-7.707-17.181-17.181C1.431,9.027,9.138,1.32,18.611,1.32 M18.611,0.148C8.476,0.148,0.26,8.365,0.26,18.5
    c0,10.135,8.216,18.352,18.352,18.352c10.135,0,18.352-8.217,18.352-18.352C36.963,8.365,28.747,0.148,18.611,0.148L18.611,0.148z"
    />
  <path fill="#A8551B" d="M17.881,31.938v-1.324c-0.924-0.027-1.82-0.29-2.344-0.578l0.414-1.615c0.578,0.318,1.392,0.607,2.287,0.607
    c0.786,0,1.338-0.316,1.338-0.854c0-0.523-0.455-0.854-1.476-1.199c-1.475-0.497-2.481-1.185-2.481-2.522
    c0-1.228,0.855-2.179,2.33-2.454v-1.31H19.3V21.9c0.924,0.027,1.545,0.234,2.014,0.454l-0.413,1.56
    c-0.345-0.166-0.993-0.484-1.986-0.484c-0.896,0-1.186,0.399-1.186,0.786c0,0.442,0.482,0.745,1.654,1.173
    c1.654,0.578,2.303,1.337,2.303,2.591c0,1.228-0.854,2.262-2.454,2.537v1.421H17.881z"/>
  <path fill="#A8551B" d="M9.638,11.139l2.468,2.469L7.214,18.5h22.395l-4.893-4.893l2.469-2.469l7.361,7.361h0.07
    c0-8.842-7.168-16.009-16.009-16.009c-8.731,0-15.824,6.991-16,15.68L9.638,11.139z M16.264,9.324V5.81
    c0-1.186,0.962-2.147,2.148-2.147s2.147,0.962,2.147,2.147v3.514h4.492l-6.639,6.639l-6.639-6.639H16.264z"/>
</svg>