<?xml version="1.0" encoding="utf-8"?>
<!-- Generator: Adobe Illustrator 18.0.0, SVG Export Plug-In . SVG Version: 6.00 Build 0)  -->
<!DOCTYPE svg PUBLIC "-//W3C//DTD SVG 1.1//EN" "http://www.w3.org/Graphics/SVG/1.1/DTD/svg11.dtd">
<svg version="1.1" id="Layer_1" xmlns="http://www.w3.org/2000/svg" xmlns:xlink="http://www.w3.org/1999/xlink" x="0px" y="0px"
	 viewBox="54.5 381.6 1090.9 236.7" enable-background="new 54.5 381.6 1090.9 236.7" xml:space="preserve">
<g id="Layer_1_1_">
	<g>
		<g>
			<polygon fill="#A8551B" points="446.7,382.2 446.7,617.8 486.5,617.8 486.5,478.2 524.7,617.8 568.9,617.8 568.9,382.2 
				527.5,382.2 527.5,495.6 496.4,382.2 			"/>
			<polygon fill="#A8551B" points="902.7,382.2 902.7,617.8 943.1,617.8 943.1,478.2 981.3,617.8 1025.5,617.8 1025.5,382.2 
				983.5,382.2 983.5,495.6 952.4,382.2 			"/>
			<polygon fill="#A8551B" points="160.9,421.5 96.5,421.5 96.5,472.2 155.5,472.2 155.5,508.2 96.5,508.2 96.5,617.8 54.5,617.8 
				54.5,382.2 160.9,382.2 			"/>
			<polygon fill="#A8551B" points="710.7,418.7 666,418.7 666,617.8 623.5,617.8 623.5,418.7 578.7,418.7 578.7,382.2 710.7,382.2 
							"/>
			<polygon fill="#A8551B" points="763.6,581.3 834,581.3 834,617.8 721.6,617.8 721.6,382.2 763.6,382.2 			"/>
			<rect x="842.2" y="382.2" fill="#A8551B" width="44.7" height="235.6"/>
			<polygon fill="#A8551B" points="1142.7,418.7 1081.1,418.7 1081.1,474.9 1140,474.9 1140,511.5 1081.1,511.5 1081.1,578.5 
				1145.5,578.5 1145.5,617.8 1039.1,617.8 1039.1,382.2 1142.7,382.2 			"/>
			<path fill="#A8551B" d="M415.1,397.5c-11.5-9.8-26.7-15.3-45.3-15.3c-18.5,0-33.8,5.5-45.3,15.3c-11.5,10.4-16.9,24-16.9,40.9
				V500l0,0v61.6c0,16.9,5.5,30.5,16.9,40.9c11.5,10.4,26.2,15.3,45.3,15.3c18.5,0,33.8-5.5,45.3-15.3c11.5-10.4,16.9-24,16.9-40.9
				V500l0,0v-61.6C432,421.5,426,407.8,415.1,397.5z M388.4,561.1c0,10.4-8.2,18.5-18.5,18.5c-10.4,0-18.5-8.2-18.5-18.5V436.2
				c0-10.4,8.2-18.5,18.5-18.5c10.4,0,18.5,8.2,18.5,18.5V561.1z"/>
			<path fill="#A8551B" d="M214.9,382.2h-41.5v235.6h42V518h16.9c13.6,0,15.3,8.2,15.3,21.3v50.2c0,15.8,5.5,24,8.7,28.9h50.2
				c-7.1-7.6-15.8-15.8-15.3-39.3v-43.6c0-21.3-4.4-32.2-23.5-36c19.6-7.6,25.6-25.6,25.6-42.5v-25.1c0-43.1-30.5-50.2-64.4-50.2
				L214.9,382.2z M253.6,453.1c0,2.2,0,4.9,0,8.7c0,18.5-19.6,18.5-19.6,18.5h-18.5v-58.9H234c0,0,19.6,0,19.6,18.5V453.1z"/>
		</g>
	</g>
</g>
</svg>
