<svg xmlns="http://www.w3.org/2000/svg" viewBox="0 0 80 103">
    <path fill-rule="evenodd" clip-rule="evenodd" fill="#A8551B" d="M19.519,101.908c-1.813-0.561-3.532-1.255-4.24-3.245
      c-0.168-0.472-0.333-0.979-0.338-1.471c-0.029-3.373-0.016-6.746-0.016-10.181c1.411,0,2.781,0,4.301,0
      c0,2.428-0.001,4.785,0,7.143c0,0.635-0.019,1.271,0.02,1.903c0.089,1.44,0.915,2.257,2.227,2.244
      c1.283-0.012,2.073-0.753,2.107-2.196c0.062-2.664,0.029-5.331,0.041-7.997c0.001-0.33,0.035-0.66,0.059-1.08
      c1.419,0,2.787,0,4.326,0c0,1.637,0.002,3.229,0,4.823c-0.003,1.566,0.047,3.135-0.032,4.696
      c-0.144,2.841-1.362,4.322-4.068,5.114c-0.198,0.059-0.382,0.163-0.573,0.246C22.061,101.908,20.79,101.908,19.519,101.908z"/>
    <path fill-rule="evenodd" clip-rule="evenodd" fill="#A8551B" d="M33.755,101.908c-0.699-0.274-1.426-0.495-2.092-0.835
      c-1.727-0.882-2.61-2.313-2.68-4.354c1.398,0,2.736,0,4.093,0c0.911,1.698,1.692,2.235,3.152,1.861
      c0.511-0.131,0.905-0.716,1.354-1.093c-0.364-0.398-0.655-0.981-1.106-1.16c-1.332-0.524-2.752-0.827-4.093-1.333
      c-1.986-0.749-2.896-1.954-2.882-3.596c0.017-2.067,0.999-3.511,2.981-4.275c1.983-0.765,3.987-0.697,5.952,0.059
      c1.764,0.678,2.574,1.997,2.6,4.209c-1.128,0-2.258,0.022-3.386-0.021c-0.218-0.009-0.533-0.229-0.622-0.433
      c-0.48-1.091-1.401-1.148-2.351-0.987c-0.352,0.06-0.846,0.396-0.914,0.69c-0.061,0.263,0.305,0.804,0.608,0.936
      c0.884,0.388,1.828,0.64,2.754,0.93c0.564,0.176,1.146,0.3,1.707,0.487c2.088,0.697,3.072,1.852,3.156,3.666
      c0.1,2.149-0.824,3.633-2.82,4.503c-0.609,0.266-1.233,0.499-1.852,0.746C36.127,101.908,34.941,101.908,33.755,101.908z"/>
    <path fill-rule="evenodd" clip-rule="evenodd" fill="#A8551B" d="M73.75,33.278c0.408-2.39-0.311-4.325-1.649-6.055
      c-2.42-3.125-5.822-4.542-9.558-5.3c-7.079-1.438-14.242-2.056-21.459-2.081c-8.148-0.029-14.902,4.369-17.821,11.564
      c-1.601,3.945-1.646,8.008-0.896,12.116c1.945,10.649,5.54,20.662,11.659,29.668c1.615,2.377,3.291,4.73,6.049,6.312
      c-2.407,0.686-4.646,0.65-6.866,0.108c-4.687-1.145-8.259-3.987-11.258-7.628c-3.447-4.185-5.823-9.025-8.255-13.816
      C8.962,48.839,4.672,39.318,1.609,29.29c-1.091-3.572-1.958-7.16-1.47-10.979C1.332,8.966,8.601,1.768,17.954,0.689
      c3.791-0.437,7.435,0.352,11.062,1.133c11.423,2.459,22.676,5.554,33.654,9.588c4.849,1.782,9.38,4.143,13.036,7.895
      c2.722,2.792,4.647,6.027,4.24,10.078c-0.195,1.949-0.83,3.884-1.48,5.75c-2.228,6.387-4.5,12.76-6.858,19.1
      c-1.085,2.916-3.017,5.27-5.5,7.165c-5.05,3.854-10.086,7.726-15.131,11.588c-0.129,0.099-0.285,0.163-0.538,0.304
      c-3.137-3.759-4.339-8.342-5.896-12.772c2.88-1.405,5.514-3.011,8.36-4.009c5.059-1.773,5.577-6.04,6.231-10.321
      c0.158-1.034,0.152-2.093,0.232-3.294c-5.795,1.777-11.438,3.507-17.09,5.24c-1.013-4.835,0.582-9.836,4.84-11.786
      c3.585-1.641,7.386-2.55,11.279-2.773c4.854-0.278,9.728-0.212,14.594-0.294C73.196,33.275,73.403,33.278,73.75,33.278z"/>
    <path fill-rule="evenodd" clip-rule="evenodd" fill="#A8551B" d="M77.123,101.436c-2.698,0.451-4.188-0.744-4.237-3.414
      c-0.031-1.69,0.021-3.384-0.034-5.074c-0.031-0.973-0.139-1.968-1.186-2.488c-1.621-0.808-3.184,0.219-3.24,2.231
      c-0.068,2.451-0.025,4.906-0.03,7.358c0,0.456,0,0.911,0,1.438c-1.503,0-2.871,0-4.238,0c0-3.504-0.117-6.923,0.043-10.329
      c0.101-2.134,1.411-3.757,3.529-4.115c1.872-0.317,3.876-0.322,5.751-0.023c2.12,0.338,3.48,1.946,3.593,4.068
      C77.258,94.529,77.123,97.988,77.123,101.436z"/>
    <path fill-rule="evenodd" clip-rule="evenodd" fill="#A8551B" d="M13.65,86.937c0,1.312,0,2.471,0,3.761c-2.172,0-4.266,0-6.431,0
      c0,0.656,0,1.18,0,1.816c1.835,0,3.596,0,5.337,0c0.221,1.513-0.317,2.871-1.5,3.201c-1.194,0.334-2.484,0.327-3.795,0.477
      c-0.495,1.526,0.643,3.604-1.157,4.739c-0.858,0.542-2.032,0.582-3.234,0.894c-0.052-0.685-0.103-1.045-0.104-1.406
      c-0.006-3.257-0.012-6.514,0-9.771c0.009-2.464,1.188-3.676,3.637-3.705C8.768,86.915,11.132,86.937,13.65,86.937z"/>
  <rect x="43" y="86.824" fill-rule="evenodd" clip-rule="evenodd" fill="#A8551B" width="5" height="15"/>
  <path fill-rule="evenodd" clip-rule="evenodd" fill="#A8551B" d="M55.892,86.845c-3.998,0-7.238,3.49-7.238,7.795
    c0,4.306,3.24,7.796,7.238,7.796c3.997,0,7.238-3.49,7.238-7.796C63.13,90.335,59.889,86.845,55.892,86.845z M55.892,98.373
    c-1.606,0-2.909-1.531-2.909-3.733c0-2.201,1.303-3.732,2.909-3.732S58.8,92.438,58.8,94.64
    C58.8,96.842,57.498,98.373,55.892,98.373z"/>
</svg>