<?xml version="1.0" encoding="iso-8859-1"?>
<!-- Generator: Adobe Illustrator 16.0.0, SVG Export Plug-In . SVG Version: 6.00 Build 0)  -->
<!DOCTYPE svg PUBLIC "-//W3C//DTD SVG 1.1//EN" "http://www.w3.org/Graphics/SVG/1.1/DTD/svg11.dtd">
<svg version="1.1" id="Layer_1" xmlns="http://www.w3.org/2000/svg" xmlns:xlink="http://www.w3.org/1999/xlink" x="0px" y="0px"
	 width="220.228px" height="26.15px" viewBox="0 0 220.228 26.15" style="enable-background:new 0 0 220.228 26.15;"
	 xml:space="preserve">
<g>
	<path style="fill-rule:evenodd;clip-rule:evenodd;fill:#AA550E;" d="M48.32,25.693c-0.904,0-1.6,0-2.702,0
		c0-6.001,0-11.978,0-18.247c0.207-0.05,0.856-0.205,1.557-0.372c0.28,0.862,0.512,1.575,0.854,2.623
		c1.473-2.062,3.413-2.854,5.682-2.877c2.335-0.024,4.312,0.66,5.399,2.959c1.069-0.817,1.942-1.77,3.023-2.26
		c4.866-2.212,8.955,0.049,9.307,5.34c0.282,4.225,0.056,8.484,0.056,12.811c-0.71,0-1.446,0-2.376,0
		c0-2.923,0.018-5.802-0.009-8.679c-0.014-1.527-0.036-3.06-0.181-4.578c-0.338-3.51-3.235-4.062-5.825-3.031
		c-1.975,0.786-3.169,2.426-3.162,4.721c0.012,3.812,0.004,7.627,0.004,11.545c-0.876,0-1.61,0-2.555,0
		c0-2.671,0.006-5.331-0.002-7.993c-0.006-1.583,0.015-3.168-0.062-4.749c-0.162-3.355-2.94-5.016-6.007-3.517
		c-1.87,0.915-3.025,2.419-3.01,4.656C48.343,17.861,48.32,21.68,48.32,25.693z"/>
	<path style="fill-rule:evenodd;clip-rule:evenodd;fill:#AA550E;" d="M139.294,10.064c1.7-2.472,3.941-3.261,6.53-3.217
		c3.129,0.051,5.345,1.826,5.489,4.924c0.214,4.565,0.054,9.147,0.054,13.841c-0.523,0-1.254,0-2.204,0
		c0-2.53,0.019-5.079-0.006-7.629c-0.02-1.854,0.069-3.73-0.186-5.556c-0.439-3.177-3.249-4.545-6.099-3.002
		c-1.812,0.982-2.973,2.496-2.955,4.725c0.031,3.807,0.009,7.617,0.009,11.502c-0.882,0-1.573,0-2.489,0
		c0-2.19,0.008-4.359-0.002-6.528c-0.009-2.076,0.021-4.152-0.068-6.225c-0.146-3.358-2.902-5.025-5.989-3.563
		c-1.883,0.892-3.08,2.379-3.073,4.615c0.012,3.867,0.004,7.734,0.004,11.689c-0.861,0-1.548,0-2.642,0c0-5.976,0-11.945,0-18.167
		c0.196-0.052,0.8-0.208,1.476-0.384c0.295,0.879,0.547,1.63,0.907,2.704c1.445-2.148,3.417-2.901,5.682-2.946
		C136.074,6.801,138.01,7.585,139.294,10.064z"/>
	<path style="fill-rule:evenodd;clip-rule:evenodd;fill:#AA550E;" d="M194.556,0.363c0.841-0.115,1.484-0.205,2.563-0.353
		c0,8.464,0,16.826,0,25.47c-0.148,0.038-0.748,0.19-1.433,0.367c-0.311-0.854-0.576-1.59-0.934-2.571
		c-1.753,2.291-3.987,2.977-6.576,2.808c-2.345-0.154-4.109-1.188-4.948-3.406c-1.396-3.69-1.493-7.505-0.306-11.238
		c1.069-3.362,3.594-4.857,7.236-4.562c1.444,0.118,2.869,0.486,4.396,0.755C194.556,5.255,194.556,2.873,194.556,0.363z
		 M194.499,15.303c0-1.146-0.124-2.311,0.03-3.436c0.234-1.715-0.619-2.398-2.111-2.631c-0.75-0.118-1.509-0.232-2.269-0.265
		c-3.007-0.124-4.653,0.923-5.036,3.919c-0.331,2.609-0.227,5.326,0.094,7.946c0.262,2.162,1.858,3.206,3.918,3.226
		c3.067,0.028,5.368-2.247,5.374-5.32C194.503,17.596,194.499,16.449,194.499,15.303z"/>
	<path style="fill-rule:evenodd;clip-rule:evenodd;fill:#AA550E;" d="M0,0.299C0.813,0.196,1.506,0.109,2.372,0
		c0,3.041,0,5.966,0,8.57c1.802-0.597,3.501-1.488,5.273-1.674c3.783-0.396,6.237,1.502,6.486,5.271
		c0.293,4.442,0.069,8.92,0.069,13.485c-0.722,0-1.456,0-2.396,0c0-2.517,0.006-5.013-0.004-7.509
		c-0.005-1.637-0.003-3.274-0.062-4.911c-0.057-1.641-0.373-3.242-2.121-3.906c-1.841-0.699-3.689-0.524-5.247,0.757
		c-1.249,1.029-2.036,2.307-1.991,4.09c0.096,3.807,0.03,7.616,0.03,11.5c-0.877,0-1.57,0-2.41,0C0,17.271,0,8.85,0,0.299z"/>
	<path style="fill-rule:evenodd;clip-rule:evenodd;fill:#AA550E;" d="M80.805,8.199c2.943-1.374,5.746-1.791,8.66-1.017
		c2.653,0.707,4.39,2.99,4.52,5.957c0.11,2.508,0.071,5.021,0.171,7.532c0.061,1.52,0.259,3.033,0.414,4.746
		c-0.58,0.133-1.226,0.283-1.927,0.447c-0.283-0.861-0.517-1.568-0.852-2.584c-1.913,2.676-4.542,3.005-7.344,2.812
		c-2.885-0.198-4.521-1.537-4.835-3.957c-0.412-3.157,0.482-4.946,3.434-5.803c2.648-0.767,5.423-1.098,8.234-1.64
		c0.752-2.99-1.057-5.596-4.3-5.578c-1.76,0.009-3.519,0.501-5.453,0.804C81.352,9.498,81.104,8.913,80.805,8.199z M91.225,16.84
		c-2.541,0.52-5.054,0.904-7.485,1.579c-1.448,0.401-1.814,1.685-1.627,3.174c0.184,1.441,1.013,2.021,2.321,2.329
		C88.488,24.876,92.471,21.838,91.225,16.84z"/>
	<path style="fill-rule:evenodd;clip-rule:evenodd;fill:#AA550E;" d="M161.585,9.965c-0.222-0.558-0.437-1.096-0.707-1.773
		c3.213-1.42,6.366-1.98,9.583-0.583c2.327,1.013,3.379,3.045,3.505,5.496c0.132,2.507,0.06,5.025,0.154,7.536
		c0.058,1.52,0.263,3.033,0.422,4.74c-0.519,0.136-1.115,0.29-1.808,0.469c-0.311-0.853-0.576-1.59-0.923-2.553
		c-2.381,3.015-5.447,3.197-8.677,2.514c-2.281-0.484-3.301-1.74-3.495-3.941c-0.246-2.775,0.407-4.464,2.665-5.183
		c2.519-0.799,5.195-1.107,7.807-1.615c0.417-0.08,0.847-0.091,1.241-0.13c0.517-3.932-1.446-6.146-5.245-5.861
		C164.659,9.188,163.239,9.629,161.585,9.965z M171.227,16.809c-2.539,0.521-5.047,0.924-7.485,1.58
		c-1.259,0.339-1.798,1.442-1.684,2.828c0.103,1.25,0.522,2.22,1.807,2.604C168.392,25.189,172.643,21.866,171.227,16.809z"/>
	<path style="fill-rule:evenodd;clip-rule:evenodd;fill:#AA550E;" d="M207.889,18.178c-0.312,3.661,1.339,5.748,4.74,5.759
		c1.91,0.005,3.822-0.532,5.917-0.854c0.138,0.283,0.392,0.802,0.636,1.306c-2.662,1.996-7.982,2.397-10.634,0.684
		c-0.917-0.593-1.849-1.513-2.245-2.496c-1.612-3.992-1.716-8.097-0.021-12.095c1.157-2.725,3.635-3.859,7.229-3.623
		c3.134,0.205,4.922,1.448,5.761,4.421c0.519,1.841,0.637,3.792,0.957,5.844C215.884,17.492,211.926,17.831,207.889,18.178z
		 M207.819,16.245c3.312-0.328,6.527-0.647,9.712-0.964c0.121-4.45-1.568-6.426-5.164-6.285
		C209.041,9.124,207.331,11.745,207.819,16.245z"/>
	<path style="fill-rule:evenodd;clip-rule:evenodd;fill:#AA550E;" d="M117.206,25.689c-0.789,0-1.486,0-2.428,0
		c0-1.526,0.006-3.034-0.002-4.542c-0.013-2.62,0.012-5.244-0.064-7.865c-0.088-2.97-1.369-4.302-3.983-4.299
		c-2.875,0.005-5.309,2.091-5.336,4.655c-0.038,3.715-0.011,7.43-0.018,11.144c-0.001,0.265-0.053,0.528-0.089,0.878
		c-0.797,0-1.529,0-2.637,0c0-6.037,0-12.01,0-18.209c0.252-0.063,0.86-0.218,1.548-0.391c0.302,0.859,0.562,1.599,0.917,2.609
		c1.435-1.941,3.263-2.722,5.422-2.84c3.909-0.213,6.4,1.679,6.614,5.592C117.389,16.771,117.206,21.144,117.206,25.689z"/>
	<path style="fill-rule:evenodd;clip-rule:evenodd;fill:#AA550E;" d="M37.227,7.449c0,6.025,0,11.947,0,18.077
		c-0.303,0.064-0.909,0.191-1.57,0.33c-0.284-0.861-0.52-1.575-0.83-2.517c-1.729,2.181-3.939,2.918-6.536,2.783
		c-2.987-0.158-5.063-1.703-5.374-4.694c-0.344-3.303-0.278-6.649-0.366-9.976c-0.035-1.248-0.007-2.495-0.007-3.868
		c0.877-0.095,1.615-0.179,2.561-0.284c0,1.949-0.005,3.79,0,5.631c0.01,2.295-0.032,4.594,0.063,6.885
		c0.066,1.623,0.423,3.269,2.198,3.875c1.837,0.627,3.706,0.5,5.24-0.845c1.262-1.108,2.053-2.444,1.982-4.283
		c-0.115-3.002-0.033-6.012-0.03-9.017C34.56,7.444,34.564,7.444,37.227,7.449z"/>
</g>
</svg>
