<svg xmlns="http://www.w3.org/2000/svg" viewBox="0 0 619.674 93.986">
 <g>
    <path fill="#a65524" d="M58.689,0.992h45.381v16.119H76.048v21.203h26.782v15.994H76.048v22.814h28.022v15.748H58.689V0.992z"/>
    <path fill="#a65524" d="M109.07,0.992h17.607l6.076,39.058l2.232,15.002l2.479-15.002l7.068-39.058h14.383l7.067,39.058
        l2.48,15.002l2.232-15.002l6.2-39.058h16.119l-15.251,92.126h-16.987l-6.82-33.479l-2.852-15.746l-2.852,15.746l-6.696,33.479
        h-17.235L109.07,0.992z"/>
    <path fill="#a65524" d="M242.873,60.384h-7.439v32.486h-16.987V0.992h24.799c20.831,0,27.65,9.176,27.65,28.642
        c0,11.902-2.976,21.203-12.027,26.41l11.655,36.826h-17.731L242.873,60.384z M243.121,44.761c8.432,0,10.911-4.217,10.911-14.135
        c0-10.168-2.479-13.889-11.035-13.889h-7.563v28.023H243.121z"/>
    <path fill="#a65524" d="M275.895,0.992h45.381v16.119h-28.022v21.203h26.783v15.994h-26.783v22.814h28.022v15.748h-45.381V0.992z"
        />
    <path fill="#a65524" d="M326.277,0.992h25.666c21.452,0,27.651,9.92,27.651,30.501c0,20.459-6.076,31.123-27.527,31.123h-8.556
        v30.254h-17.234V0.992z M351.943,46.869c8.184,0,10.787-3.844,10.787-15.127c0-11.654-2.604-14.879-10.911-14.879h-8.308v30.006
        H351.943z"/>
    <path fill="#a65524" d="M391.165,87.91c-5.829-5.33-6.573-13.887-6.573-24.053V0.992h17.483v62.121
        c0,10.91,1.984,14.754,10.045,14.754c7.811,0,10.043-3.719,10.043-14.754V0.992h16.986v62.865c0,9.918-0.619,18.475-6.322,23.807
        c-4.092,3.844-11.037,6.322-21.08,6.322C402.075,93.986,395.257,91.755,391.165,87.91z"/>
    <path fill="#a65524" d="M444.149,0.992h26.039c19.219,0,25.418,8.184,25.418,23.433c0,9.92-1.488,17.484-8.184,20.211
        c7.812,2.605,9.299,11.285,9.299,23.188c0,16.615-8.307,25.047-25.789,25.047h-26.783V0.992z M469.692,39.058
        c7.314,0,9.299-4.465,9.299-11.656c0-7.562-2.604-10.912-9.547-10.912h-8.68v22.568H469.692z M470.312,77.867
        c7.068,0,9.797-3.844,9.797-11.902c0-8.805-3.102-11.656-9.92-11.656h-9.424v23.559H470.312z"/>
    <path fill="#a65524" d="M501.722,0.992h17.357v76.13h26.412v15.748h-43.77V0.992z"/>
    <path fill="#a65524" d="M550.489,0.992h17.359v91.878h-17.359V0.992z"/>
    <g>
        <path fill="#a65524" d="M16.138,39.603v-6.021h-1.807v-1.588h5.36v1.588h-1.819v7.459h-1.168l3.755,9.549l17.607,42.281h15.623
            V0.992H37.57v49.101l-4.711-12.152l-1.771-4.359h-2.636v2.087h2.637v1.576h-2.637v2.246h2.759v1.55h-4.469v-9.047h3.701
            L17.855,0.992H0v91.878h16.119V39.554 M25.93,41.041H24.22v-3.784h-1.966v3.784h-1.709v-9.047h1.709v3.553h1.966v-3.553h1.709
            V41.041z"/>
    </g>
    <path fill="#a65524" d="M619.674,72.595l-0.013-0.41c-5.377,2.809-11.969,5.062-16.557,5.062c-10.789,0-12.648-5.209-12.648-30.006
        c0-25.295,1.859-30.379,12.648-30.379c3.719,0,12.473,1.707,16.557,3.754l0.013-3.982V2.835C614.486,0.863,610.148,0,602.112,0
        c-9.797,0-16.74,2.852-21.08,7.688c-7.191,7.687-8.184,20.087-8.184,39.181c0,19.592,1.24,32.363,8.68,39.555
        c4.465,4.34,11.16,7.066,20.707,7.066c7.88,0,12.771-1.381,17.438-3.253V72.595z"/>
 </g>
</svg>