<svg xmlns="http://www.w3.org/2000/svg" viewBox="0 0 302 100">
    <path fill-rule="evenodd" clip-rule="evenodd" fill="#A65524" d="M2,46.056c0.067-0.929,0.166-1.856,0.196-2.786
        c0.072-2.179,0.172-4.355,0.536-6.507c0.131-0.772,0.349-1.536,0.597-2.28c0.283-0.849,0.885-1.332,1.823-1.32
        c0.269,0.003,0.539-0.029,0.808-0.029c5.313-0.002,10.626-0.002,15.94,0c1.054,0,0.882,0.002,1.221,0.806
        c2.058,4.873,4.11,9.748,6.163,14.624c0.102,0.243,0.188,0.493,0.314,0.827c-0.273,0.026-0.467,0.062-0.662,0.062
        c-2.221,0.004-4.442-0.011-6.662,0.013c-0.475,0.005-0.696-0.175-0.869-0.595c-1.029-2.493-2.081-4.976-3.125-7.462
        c-0.08-0.191-0.169-0.379-0.241-0.573c-0.09-0.247-0.249-0.357-0.518-0.348c-0.408,0.014-0.817,0.004-1.333,0.004
        c0.114,0.304,0.185,0.511,0.269,0.712c1.044,2.486,2.091,4.971,3.135,7.458c0.092,0.221,0.162,0.451,0.279,0.782
        c-2.085,0-4.064,0-6.16,0c2.526,6.005,5.006,11.899,7.514,17.861c-0.261,0.033-0.417,0.07-0.573,0.071
        c-5.106,0.002-10.212-0.004-15.317,0.007c-1.024,0.002-1.685-0.45-2.045-1.399c-0.379-0.997-0.604-2.034-0.685-3.088
        c-0.198-2.564-0.341-5.133-0.51-7.698C2.079,54.971,2.032,54.748,2,54.524C2,51.701,2,48.879,2,46.056z"/>
    <path fill-rule="evenodd" clip-rule="evenodd" fill="#A65524" d="M302,64.984c-1.681,0.01-3.362,0.02-5.042,0.026
        c-0.665,0.003-1.33-0.023-1.992,0.009c-0.425,0.021-0.686-0.143-0.929-0.478c-1.863-2.571-3.743-5.13-5.617-7.693
        c-1.973-2.697-3.944-5.395-5.918-8.09c-0.116-0.159-0.247-0.308-0.37-0.461c-0.043,0.012-0.086,0.024-0.129,0.037
        c0,5.526,0,11.051,0,16.553c-0.543,0.146-6.706,0.186-7.64,0.064c-0.031-0.135-0.083-0.287-0.097-0.442
        c-0.019-0.206-0.009-0.415-0.009-0.622c-0.001-9.111-0.001-18.224,0.001-27.335c0-0.325,0.025-0.651,0.041-1.023
        c0.287-0.02,0.509-0.049,0.73-0.049c2.097-0.004,4.193,0.011,6.289-0.013c0.492-0.005,0.796,0.173,1.086,0.557
        c3.785,5.021,7.585,10.032,11.381,15.045c0.147,0.194,0.3,0.386,0.568,0.55c0-5.337,0-10.674,0-16.07
        c0.336-0.028,0.598-0.069,0.858-0.069c2.262-0.007,4.524-0.007,6.787-0.009C302,45.309,302,55.146,302,64.984z"/>
    <path fill-rule="evenodd" clip-rule="evenodd" fill="#A65524" d="M128.27,48.375c0,1.092,0,2.184,0,3.276c0,1.12,0,2.241,0,3.361
        c0,1.1,0,2.2,0,3.3c0,1.119,0.01,2.24-0.002,3.361c-0.012,1.09,0.055,2.185-0.052,3.303c-2.577,0-5.081,0-7.656,0
        c-0.021-0.279-0.058-0.539-0.058-0.797c-0.004-4.337-0.003-8.674-0.003-13.01c0-4.918,0-9.836,0-14.754c0-0.266,0-0.532,0-0.859
        c0.298-0.031,0.535-0.076,0.774-0.076c2.074-0.006,4.149,0.01,6.225-0.013c0.508-0.006,0.837,0.16,1.144,0.567
        c3.77,5.005,7.556,9.998,11.337,14.994c0.157,0.207,0.318,0.412,0.478,0.619c0.043-0.016,0.086-0.029,0.129-0.045
        c0-5.337,0-10.674,0-15.987c0.612-0.188,7.148-0.188,7.726-0.011c0,9.75,0,19.514,0,29.339c-0.191,0.022-0.368,0.062-0.546,0.062
        c-2.22,0.004-4.44-0.008-6.66,0.013c-0.42,0.004-0.634-0.2-0.853-0.5c-2.42-3.319-4.847-6.634-7.272-9.949
        c-1.408-1.926-2.816-3.852-4.226-5.777c-0.109-0.149-0.224-0.294-0.336-0.442C128.369,48.36,128.319,48.368,128.27,48.375z"/>
    <path fill-rule="evenodd" clip-rule="evenodd" fill="#A65524" d="M253.796,34.919c8.438-0.007,15.248,6.804,15.237,15.24
        c-0.012,8.394-6.831,15.214-15.218,15.218c-8.414,0.004-15.245-6.833-15.236-15.261C238.589,41.574,245.573,34.867,253.796,34.919z
         M261.43,50.158c0.01-4.234-3.396-7.664-7.616-7.667c-4.197-0.003-7.608,3.389-7.632,7.59c-0.024,4.255,3.346,7.628,7.586,7.685
        C257.834,57.82,261.465,54.447,261.43,50.158z"/>
    <path fill-rule="evenodd" clip-rule="evenodd" fill="#A65524" d="M201.341,52.994c-3.688,0-7.248,0-10.888,0
        c0,3.994,0,7.946,0,11.87c-0.54,0.181-7.054,0.205-7.683,0.056c-0.12-0.459-0.161-28.465-0.033-29.357
        c0.154-0.026,0.329-0.08,0.504-0.08c2.2-0.006,4.4-0.006,6.6-0.001c0.18,0,0.359,0.044,0.587,0.074c0,3.736,0,7.425,0,11.185
        c0.238,0.035,0.433,0.087,0.627,0.088c3.237,0.005,6.475,0.004,9.712,0c0.161,0,0.321-0.039,0.567-0.07
        c0.018-3.728-0.003-7.433,0.012-11.198c0.246-0.031,0.442-0.078,0.64-0.079c2.158-0.005,4.316-0.004,6.475-0.001
        c0.182,0,0.363,0.033,0.526,0.049c0.164,0.515,0.188,28.75,0.039,29.375c-0.453,0.13-6.812,0.165-7.631,0.029
        c-0.017-0.24-0.051-0.5-0.051-0.759c-0.004-3.466-0.003-6.932-0.003-10.397C201.341,53.535,201.341,53.293,201.341,52.994z"/>
    <path fill-rule="evenodd" clip-rule="evenodd" fill="#A65524" d="M115.481,64.978c-0.308,0.015-0.512,0.032-0.716,0.032
        c-2.282,0.002-4.564,0.002-6.847,0.001c-0.675-0.001-0.678-0.003-0.924-0.659c-0.474-1.262-0.943-2.525-1.417-3.787
        c-0.079-0.21-0.173-0.415-0.265-0.633c-3.473,0-6.912,0-10.39,0c-0.085,0.189-0.175,0.373-0.251,0.562
        c-0.539,1.348-1.082,2.693-1.604,4.047c-0.131,0.339-0.317,0.479-0.688,0.477c-2.407-0.014-4.814-0.007-7.221-0.01
        c-0.121,0-0.243-0.023-0.456-0.047c0.088-0.284,0.15-0.535,0.242-0.774c1.733-4.511,3.469-9.019,5.205-13.528
        c1.855-4.818,3.709-9.637,5.565-14.455c0.279-0.724,0.28-0.726,1.074-0.726c2.282-0.001,4.564-0.001,6.847,0
        c0.767,0,0.769,0.002,1.03,0.696c3.517,9.333,7.034,18.666,10.55,28C115.301,64.402,115.369,64.638,115.481,64.978z M103.206,53.883
        c-1.012-3.034-1.995-5.984-2.978-8.935c-0.048,0.003-0.097,0.005-0.145,0.008c-0.995,2.951-1.991,5.901-3.011,8.927
        C99.14,53.883,101.099,53.883,103.206,53.883z"/>
    <path fill-rule="evenodd" clip-rule="evenodd" fill="#A65524" d="M70.014,55.28c0,1.706,0,3.3,0,4.893c0,1.572,0,3.145,0,4.688
        c-0.528,0.183-7.022,0.211-7.674,0.061c-0.132-0.49-0.15-28.733-0.006-29.387c0.204-0.018,0.425-0.055,0.646-0.055
        c3.672-0.003,7.343-0.018,11.015,0.005c1.621,0.01,3.229,0.18,4.778,0.712c3.421,1.173,5.331,3.582,5.828,7.139
        c0.235,1.679,0.18,3.355-0.169,5.011c-0.76,3.611-2.991,5.792-6.576,6.546c-1.128,0.238-2.299,0.314-3.455,0.373
        c-1.2,0.062-2.406,0.015-3.609,0.015C70.569,55.28,70.345,55.28,70.014,55.28z M70.05,48.987c0.758,0,1.461,0.043,2.156-0.011
        c0.822-0.064,1.656-0.14,2.451-0.342c1.113-0.282,1.744-1.091,1.898-2.218c0.077-0.567,0.09-1.158,0.029-1.728
        c-0.176-1.644-0.917-2.489-2.565-2.713c-1.223-0.166-2.476-0.117-3.716-0.157c-0.074-0.003-0.149,0.052-0.252,0.091
        C70.05,44.234,70.05,46.547,70.05,48.987z"/>
    <path fill-rule="evenodd" clip-rule="evenodd" fill="#A65524" d="M222.9,58.39c3.869,0.004,7.696-0.001,11.493,0.003
        c0.181,0.618,0.156,5.938-0.001,6.519c-0.471,0.128-18.57,0.149-19.251,0.011c-0.019-0.203-0.057-0.425-0.057-0.646
        c-0.003-9.356-0.003-18.714-0.002-28.071c0-0.125,0.005-0.249,0.014-0.373c0.016-0.224,0.146-0.333,0.363-0.343
        c0.165-0.007,0.332-0.011,0.497-0.011c5.893,0,11.785,0,17.678,0c0.083,0,0.166-0.001,0.248,0.001
        c0.55,0.02,0.593,0.063,0.612,0.615c0.003,0.083,0.001,0.166,0.001,0.249c0,1.639,0.002,3.278-0.002,4.917
        c-0.001,0.244-0.029,0.487-0.05,0.8c-0.796,0.073-1.558,0.028-2.315,0.036c-0.769,0.008-1.536,0.002-2.304,0.002s-1.535,0-2.303,0
        s-1.535,0-2.303,0c-0.762,0-1.523,0-2.313,0c-0.026,0.235-0.06,0.395-0.061,0.555c-0.005,1.204-0.006,2.407-0.001,3.61
        c0.002,0.598,0.022,0.617,0.644,0.617c2.386,0.003,4.772,0.001,7.158,0.001c0.244,0,0.488,0,0.71,0
        c0.183,0.668,0.171,5.986-0.016,6.579c-0.221,0-0.466,0-0.71,0c-2.324,0-4.647-0.001-6.972,0c-0.166,0-0.331,0.001-0.497,0.011
        c-0.195,0.012-0.303,0.117-0.312,0.315c-0.004,0.104-0.007,0.208-0.007,0.312c0,1.224-0.002,2.447,0.003,3.672
        C222.846,57.949,222.876,58.131,222.9,58.39z"/>
    <path fill-rule="evenodd" clip-rule="evenodd" fill="#A65524" d="M10.222,69.166c0.911-0.109,1.794-0.094,2.677-0.096
        c0.892-0.003,1.785-0.001,2.677-0.001s1.785,0,2.677,0s1.785,0.007,2.677-0.002c0.885-0.009,1.773,0.043,2.755-0.048
        c-0.078-0.266-0.115-0.459-0.189-0.637c-1.777-4.229-3.558-8.455-5.338-12.682c-0.547-1.301-1.096-2.601-1.64-3.902
        c-0.069-0.165-0.109-0.342-0.185-0.581c0.244-0.028,0.421-0.067,0.598-0.067c1.017-0.006,2.035,0.015,3.051-0.012
        c0.45-0.012,0.663,0.18,0.829,0.577c1.641,3.925,3.297,7.844,4.948,11.765c0.692,1.645,1.398,3.283,2.066,4.939
        c0.191,0.473,0.45,0.67,0.97,0.659c1.369-0.029,2.739,0.001,4.109-0.015c0.405-0.006,0.643,0.122,0.805,0.514
        c1.105,2.664,2.231,5.32,3.348,7.979c0.062,0.147,0.096,0.308,0.169,0.546c-0.309,0.025-0.565,0.064-0.822,0.064
        c-3.238,0.004-6.476,0.003-9.713,0.003c-0.263,0-0.526,0-0.921,0c0.968,2.474,1.992,4.778,2.958,7.106
        c0.971,2.339,1.961,4.669,2.944,7.002c0.98,2.326,1.961,4.652,2.877,7.02C26.384,89.316,18.287,79.29,10.222,69.166z"/>
    <path fill-rule="evenodd" clip-rule="evenodd" fill="#A65524" d="M169.392,64.978c-2.633,0-5.136,0-7.716,0
        c-0.021-0.295-0.059-0.573-0.059-0.853c-0.003-6.203-0.002-12.405-0.002-18.608c0-0.913,0.002-1.826-0.002-2.738
        c-0.001-0.202-0.023-0.403-0.04-0.674c-2.441,0-4.838,0-7.209,0c-0.188-0.553-0.224-5.796-0.053-6.566
        c0.197-0.019,0.415-0.058,0.634-0.058c7.032-0.003,14.064-0.003,21.097,0c0.203,0,0.405,0.031,0.589,0.046
        c0.157,0.522,0.176,5.863,0.019,6.549c-2.372,0.065-4.769-0.017-7.22,0.045c-0.014,0.325-0.037,0.607-0.037,0.891
        c-0.002,7.012-0.001,14.023-0.001,21.035C169.392,64.33,169.392,64.614,169.392,64.978z"/>
    <path fill-rule="evenodd" clip-rule="evenodd" fill="#A65524" d="M31.208,31.479c-0.203,0-0.405,0-0.607,0
        c-7.281,0-14.562,0-21.843,0c-0.083,0-0.167-0.009-0.249,0c-0.421,0.051-0.63-0.159-0.785-0.538
        c-0.627-1.536-1.281-3.061-1.925-4.59c-0.435-1.032-0.871-2.064-1.303-3.098c-0.102-0.243-0.189-0.493-0.322-0.837
        c0.327-0.015,0.564-0.035,0.802-0.035c3.257-0.002,6.514,0,9.771-0.004c0.259,0,0.518-0.041,0.885-0.071
        c-0.438-1.281-0.989-2.413-1.46-3.574c-0.476-1.172-0.984-2.332-1.475-3.498c-0.499-1.185-0.992-2.373-1.491-3.558
        c-0.491-1.167-0.988-2.33-1.479-3.496C9.236,7.014,8.75,5.846,8.26,4.679C7.772,3.517,7.281,2.354,6.792,1.192
        c0.036-0.024,0.072-0.048,0.108-0.072c8.13,10.064,16.26,20.127,24.391,30.191C31.263,31.367,31.236,31.423,31.208,31.479z"/>
    <path fill-rule="evenodd" clip-rule="evenodd" fill="#A65524" d="M22.394,51.089c0.327-0.02,0.548-0.044,0.77-0.044
        c6.12-0.002,12.239-0.002,18.358,0c0.898,0,1.131,0.164,1.341,1.041c0.322,1.346,0.313,2.716,0.19,4.083
        c-0.044,0.493-0.13,0.989-0.268,1.463c-0.191,0.658-0.393,0.778-1.082,0.778c-5.207,0.002-10.413-0.007-15.62,0.014
        c-0.504,0.002-0.734-0.176-0.916-0.621c-0.833-2.033-1.696-4.055-2.546-6.081C22.552,51.554,22.498,51.378,22.394,51.089z"/>
    <path fill-rule="evenodd" clip-rule="evenodd" fill="#A65524" d="M24.596,33.203c0.292-0.028,0.51-0.066,0.728-0.067
        c4.978-0.003,9.956-0.004,14.934-0.001c0.806,0,1.036,0.161,1.23,0.933c0.121,0.48,0.231,0.979,0.234,1.469
        c0.008,1.117-0.05,2.235-0.09,3.353c-0.006,0.164-0.052,0.327-0.092,0.487c-0.241,0.975-0.413,1.111-1.396,1.111
        c-3.941,0-7.882-0.008-11.822,0.01c-0.505,0.003-0.775-0.137-0.974-0.628c-0.815-2.018-1.679-4.016-2.522-6.022
        C24.749,33.663,24.69,33.47,24.596,33.203z"/>
    <path fill-rule="evenodd" clip-rule="evenodd" fill="#A65524" d="M26.181,60.054c0.314-0.019,0.518-0.042,0.721-0.042
        c4.44-0.002,8.88-0.002,13.321,0c0.838,0,1.067,0.158,1.273,0.964c0.117,0.46,0.224,0.938,0.226,1.409
        c0.004,1.139-0.041,2.277-0.098,3.415c-0.015,0.304-0.128,0.606-0.221,0.901c-0.147,0.47-0.45,0.695-0.974,0.684
        c-1.182-0.025-2.365-0.008-3.548-0.008c-2.344,0-4.689-0.01-7.034,0.01c-0.459,0.004-0.704-0.14-0.882-0.574
        c-0.841-2.053-1.716-4.092-2.576-6.139C26.32,60.508,26.273,60.332,26.181,60.054z"/>
    <path fill-rule="evenodd" clip-rule="evenodd" fill="#A65524" d="M28.375,42.163c0.28-0.025,0.499-0.061,0.717-0.061
        c4.171-0.003,8.342-0.004,12.513-0.001c0.813,0,1.027,0.149,1.231,0.929c0.115,0.438,0.187,0.895,0.223,1.347
        c0.108,1.327,0.112,2.653-0.175,3.963c-0.044,0.201-0.112,0.4-0.193,0.589c-0.153,0.357-0.417,0.542-0.827,0.529
        c-0.601-0.017-1.203-0.003-1.805-0.003c-2.677,0-5.354-0.01-8.03,0.01c-0.462,0.003-0.704-0.143-0.881-0.575
        c-0.84-2.053-1.712-4.094-2.57-6.141C28.507,42.583,28.459,42.408,28.375,42.163z"/>
</svg>