<?xml version="1.0" encoding="iso-8859-1"?>
<!-- Generator: Adobe Illustrator 16.0.0, SVG Export Plug-In . SVG Version: 6.00 Build 0)  -->
<!DOCTYPE svg PUBLIC "-//W3C//DTD SVG 1.1//EN" "http://www.w3.org/Graphics/SVG/1.1/DTD/svg11.dtd">
<svg version="1.1" id="Layer_1" xmlns="http://www.w3.org/2000/svg" xmlns:xlink="http://www.w3.org/1999/xlink" x="0px" y="0px"
	 width="153.572px" height="64.225px" viewBox="0 0 153.572 64.225" style="enable-background:new 0 0 153.572 64.225;"
	 xml:space="preserve">
<g>
	<g>
		<g>
			<path style="fill:#AA550E;" d="M4.566,32.111c0,10.904,6.333,20.327,15.524,24.794L6.95,20.898
				C5.421,24.324,4.566,28.116,4.566,32.111z"/>
		</g>
		<g>
			<path style="fill:#AA550E;" d="M50.708,30.723c0-3.405-1.225-5.764-2.271-7.597c-1.396-2.271-2.704-4.192-2.704-6.461
				c0-2.532,1.92-4.891,4.624-4.891c0.122,0,0.24,0.013,0.357,0.021c-4.898-4.488-11.43-7.229-18.601-7.229
				c-9.626,0-18.094,4.935-23.019,12.413c0.647,0.023,1.257,0.035,1.774,0.035c2.88,0,7.342-0.349,7.342-0.349
				c1.483-0.089,1.659,2.092,0.175,2.269c0,0-1.492,0.176-3.15,0.262l10.029,29.841l6.028-18.081l-4.29-11.76
				c-1.484-0.086-2.89-0.262-2.89-0.262c-1.485-0.085-1.31-2.357,0.175-2.269c0,0,4.548,0.349,7.255,0.349
				c2.88,0,7.344-0.349,7.344-0.349c1.482-0.089,1.659,2.092,0.176,2.269c0,0-1.494,0.176-3.152,0.262l9.954,29.608l2.748-9.179
				C49.803,35.814,50.708,33.078,50.708,30.723z"/>
		</g>
		<g>
			<path style="fill:#AA550E;" d="M32.597,34.52L24.33,58.538c2.468,0.726,5.078,1.121,7.783,1.121c3.206,0,6.284-0.552,9.147-1.558
				c-0.075-0.121-0.142-0.246-0.198-0.385L32.597,34.52z"/>
		</g>
		<g>
			<path style="fill:#AA550E;" d="M56.285,18.895c0.119,0.88,0.185,1.818,0.185,2.838c0,2.793-0.524,5.935-2.096,9.861
				l-8.411,24.328c8.188-4.775,13.695-13.65,13.695-23.811C59.658,27.32,58.434,22.819,56.285,18.895z"/>
		</g>
		<g>
			<path style="fill:#AA550E;" d="M32.113,0C14.405,0,0,14.403,0,32.111c0,17.707,14.405,32.113,32.113,32.113
				c17.705,0,32.111-14.406,32.111-32.113C64.225,14.403,49.818,0,32.113,0z M32.113,62.75c-16.896,0-30.641-13.742-30.641-30.639
				c0-16.895,13.744-30.638,30.641-30.638c16.894,0,30.638,13.743,30.638,30.638C62.751,49.008,49.007,62.75,32.113,62.75z"/>
		</g>
	</g>
	<g>
		<path style="fill:#AA550E;" d="M87.962,51.702L74.211,16.696h6.98l10.602,28.288l10.602-28.288h6.98l-13.75,35.006H87.962z"/>
		<path style="fill:#AA550E;" d="M113.158,51.702V16.696h6.141v35.006H113.158z"/>
		<path style="fill:#AA550E;" d="M126.753,51.702V16.696h15.43c7.348,0,11.389,4.985,11.389,10.97
			c0,5.93-4.094,10.916-11.389,10.916h-9.289v13.12H126.753z M147.273,27.666c0-3.359-2.467-5.564-5.93-5.564h-8.449v11.074h8.449
			C144.806,33.176,147.273,30.973,147.273,27.666z"/>
	</g>
</g>
</svg>
